<?xml version="1.0" standalone="no"?>
<!DOCTYPE svg PUBLIC "-//W3C//DTD SVG 20010904//EN"
 "http://www.w3.org/TR/2001/REC-SVG-20010904/DTD/svg10.dtd">
<svg version="1.0" xmlns="http://www.w3.org/2000/svg"
 width="1320.000000pt" height="1320.000000pt" viewBox="0 0 1320.000000 1320.000000"
 preserveAspectRatio="xMidYMid meet">
<metadata>
Created by potrace 1.11, written by Peter Selinger 2001-2013
</metadata>
<g transform="translate(0.000000,1320.000000) scale(0.100000,-0.100000)"
fill="#000000" stroke="none">
<path d="M6957 10248 c-20 -10 -37 -15 -37 -11 0 5 -4 3 -8 -3 -4 -5 -33 -21
-64 -33 -32 -13 -58 -27 -58 -30 0 -4 -6 -8 -12 -8 -7 0 -62 -23 -122 -51 -59
-29 -110 -52 -113 -52 -2 0 -32 -14 -66 -31 -34 -17 -64 -31 -67 -31 -3 0 -47
-20 -98 -44 -51 -24 -94 -44 -96 -44 -6 0 -198 -89 -228 -105 -14 -8 -33 -15
-42 -15 -9 0 -16 -4 -16 -10 0 -5 -4 -10 -10 -10 -5 0 -35 -12 -67 -27 -32
-14 -60 -27 -63 -28 -3 0 -26 -11 -52 -23 -26 -12 -52 -22 -57 -22 -6 0 -11
-4 -11 -10 0 -5 -7 -10 -16 -10 -9 0 -28 -6 -42 -14 -15 -8 -52 -25 -82 -39
-30 -14 -91 -42 -135 -62 -126 -59 -170 -78 -175 -80 -3 0 -25 -11 -50 -24
-25 -13 -46 -24 -47 -23 -2 1 -35 -14 -75 -32 -40 -19 -104 -48 -143 -66 -38
-17 -86 -38 -105 -47 -19 -8 -42 -18 -50 -23 -9 -4 -117 -54 -240 -110 -124
-56 -256 -117 -295 -135 -38 -18 -92 -43 -120 -55 -243 -110 -295 -134 -327
-151 -21 -11 -38 -17 -38 -12 0 4 -4 3 -8 -2 -4 -6 -88 -47 -187 -92 l-180
-81 2 -34 c3 -34 10 -83 13 -83 1 0 3 -9 5 -20 2 -11 8 -42 14 -70 6 -27 13
-59 15 -70 2 -11 8 -40 14 -65 6 -25 13 -56 16 -70 2 -14 15 -70 27 -125 12
-55 23 -110 24 -122 2 -11 6 -32 11 -45 4 -12 8 -32 9 -43 2 -11 8 -38 13 -60
6 -22 14 -56 17 -75 3 -19 8 -43 11 -52 5 -16 9 -35 19 -88 5 -28 11 -53 26
-120 5 -25 11 -54 13 -65 2 -11 8 -38 14 -60 6 -22 13 -53 16 -70 3 -16 12
-61 21 -98 8 -37 17 -82 20 -99 3 -17 8 -35 10 -39 3 -4 7 -23 9 -42 3 -20 9
-53 15 -74 11 -40 40 -174 45 -208 2 -11 9 -42 16 -70 6 -27 14 -63 17 -80 2
-16 9 -48 15 -70 5 -22 12 -49 14 -61 2 -11 18 -85 35 -165 17 -79 33 -155 35
-169 3 -14 10 -43 16 -65 6 -22 12 -51 14 -65 1 -14 5 -34 8 -45 11 -45 37
-165 53 -242 9 -46 19 -83 22 -83 3 0 7 37 7 83 1 75 7 239 19 537 6 143 15
370 20 515 4 128 13 344 20 530 3 72 7 188 10 258 2 70 7 132 10 137 4 6 1 10
-5 10 -6 0 -8 5 -5 11 4 6 9 52 10 102 2 51 6 173 10 272 4 99 8 216 9 260 3
80 3 80 37 97 51 27 164 77 180 80 8 2 17 7 20 11 3 5 12 10 20 11 8 2 32 11
54 21 22 9 60 26 85 37 25 10 59 25 75 33 17 7 61 27 98 44 37 17 70 31 72 31
2 0 38 16 79 35 42 19 79 35 82 35 2 0 39 16 80 35 41 19 77 35 79 35 3 0 39
16 81 35 41 19 77 35 80 35 2 0 38 16 80 35 41 19 81 35 88 35 6 0 16 4 22 9
5 5 135 64 289 131 342 149 344 150 350 150 3 -1 18 6 33 14 29 17 181 86 187
86 3 0 30 12 62 26 32 14 74 33 93 41 19 8 43 19 53 24 10 5 39 18 65 28 26
11 70 30 97 42 28 13 52 24 55 24 3 0 23 9 45 19 22 10 58 26 80 36 22 9 55
24 72 33 31 15 34 14 75 -14 24 -16 48 -29 55 -29 6 0 13 -4 15 -8 3 -9 184
-132 194 -132 3 0 23 -13 43 -28 20 -15 48 -34 64 -41 15 -8 27 -18 27 -23 0
-5 5 -6 10 -3 6 3 10 2 10 -2 0 -5 15 -17 33 -28 74 -43 322 -209 325 -217 2
-4 8 -8 13 -8 6 0 63 -35 127 -77 64 -42 178 -116 252 -165 74 -48 144 -95
155 -103 11 -9 41 -28 68 -42 26 -14 47 -30 47 -35 0 -4 4 -8 9 -8 5 0 57 -31
115 -70 58 -38 110 -70 115 -70 5 0 11 -4 13 -8 3 -8 95 -72 104 -72 3 0 10
-5 17 -11 13 -11 122 -82 417 -274 102 -66 187 -122 190 -126 3 -3 19 -13 35
-22 17 -8 41 -25 54 -36 13 -12 30 -21 38 -21 7 0 13 -4 13 -8 0 -5 11 -14 24
-20 27 -12 32 -33 51 -207 2 -22 11 -89 19 -150 8 -60 12 -113 10 -117 -3 -4
-2 -8 3 -8 4 0 8 -10 9 -22 1 -24 11 -120 19 -172 3 -17 7 -53 10 -79 2 -26 7
-52 10 -57 4 -6 27 20 52 57 26 38 50 70 55 71 4 2 8 8 8 12 0 5 27 48 60 95
33 47 60 90 60 95 0 5 6 13 13 17 6 4 34 42 62 83 27 41 55 81 62 88 7 7 13
17 13 22 0 5 6 15 13 22 11 12 153 215 170 245 6 10 -28 38 -127 105 -10 7
-24 19 -32 26 -7 6 -17 12 -22 12 -6 0 -12 4 -14 8 -1 4 -106 82 -233 172
-126 91 -232 167 -235 170 -3 3 -27 21 -55 40 -27 19 -51 38 -53 42 -2 4 -10
8 -17 8 -7 0 -15 4 -17 8 -3 7 -58 49 -123 92 -23 15 -156 111 -415 298 -80
58 -146 109 -148 114 -2 4 -9 8 -15 8 -10 0 -66 39 -118 82 -9 7 -23 18 -32
23 -9 6 -105 74 -214 153 -109 78 -300 215 -424 305 -125 89 -237 170 -250
180 -13 9 -80 57 -149 107 -69 49 -129 93 -135 98 -5 4 -41 30 -80 56 -38 27
-72 52 -75 56 -3 3 -22 16 -43 29 -21 13 -43 28 -50 35 -6 6 -51 39 -98 72
l-86 61 -36 -19z"/>
<path d="M6883 9448 c-18 -6 -33 -14 -33 -18 0 -4 -20 -14 -45 -21 -25 -7 -45
-17 -45 -21 0 -4 -6 -8 -13 -8 -10 0 -128 -49 -252 -104 -16 -8 -41 -19 -55
-24 -14 -6 -47 -21 -75 -33 -45 -20 -170 -74 -235 -102 -14 -6 -27 -11 -30
-12 -12 -4 -61 -25 -124 -54 -38 -17 -75 -31 -82 -31 -8 0 -14 -4 -14 -10 0
-5 -6 -10 -14 -10 -7 0 -40 -12 -72 -27 -33 -15 -61 -28 -64 -28 -3 0 -23 -9
-45 -19 -22 -10 -49 -22 -60 -26 -11 -5 -45 -20 -75 -33 -30 -13 -84 -37 -120
-52 -36 -15 -81 -35 -100 -43 -19 -9 -37 -17 -40 -17 -7 -2 -29 -12 -185 -80
-71 -32 -150 -65 -175 -75 -45 -18 -138 -59 -195 -85 -16 -8 -64 -28 -105 -46
-41 -17 -93 -39 -115 -49 -22 -10 -74 -33 -115 -50 -41 -17 -96 -41 -122 -53
l-48 -21 -1 -55 c-1 -31 -2 -73 -3 -93 -2 -32 1 -38 18 -39 12 -1 32 -3 46 -4
31 -3 189 -15 255 -21 88 -6 168 -13 231 -19 34 -3 85 -8 115 -10 125 -9 206
-16 241 -20 20 -2 72 -6 115 -9 43 -4 105 -8 138 -11 33 -3 87 -7 120 -10 33
-2 80 -6 105 -9 25 -3 83 -8 130 -11 129 -10 158 -13 240 -20 41 -3 98 -8 125
-10 121 -9 185 -14 250 -21 39 -3 88 -8 110 -9 22 -2 72 -6 110 -9 134 -12
190 -16 265 -21 41 -3 98 -7 125 -10 28 -3 70 -7 95 -10 25 -3 81 -7 125 -10
44 -3 103 -8 130 -11 28 -2 79 -7 115 -9 36 -3 92 -7 125 -10 33 -3 87 -7 120
-10 33 -2 92 -7 130 -11 118 -11 147 -13 225 -18 41 -3 99 -8 130 -11 30 -3
82 -8 115 -11 123 -10 191 -15 240 -18 68 -5 188 -16 255 -22 30 -3 78 -7 105
-9 46 -3 96 -7 245 -21 30 -3 82 -7 115 -9 66 -5 199 -15 230 -18 17 -2 20 4
19 33 -2 43 -13 143 -17 145 -1 1 -34 22 -74 48 -40 26 -75 47 -78 47 -3 0
-11 5 -18 10 -7 6 -64 43 -127 82 -63 40 -117 75 -120 79 -3 3 -9 8 -15 10
-32 13 -125 72 -125 80 0 5 -6 9 -13 9 -8 0 -32 13 -55 30 -23 16 -56 38 -74
47 -32 18 -155 96 -208 132 -14 10 -32 20 -40 24 -8 4 -34 20 -57 35 -106 68
-438 278 -448 282 -5 3 -48 30 -95 61 -47 30 -103 66 -125 79 -22 13 -42 26
-45 29 -3 4 -14 11 -25 18 -75 46 -131 80 -154 95 -14 10 -36 22 -48 28 -13 5
-23 14 -23 20 0 5 -4 10 -10 10 -5 0 -69 37 -140 83 -72 45 -140 86 -150 92
-11 5 -20 13 -20 17 0 5 -4 8 -9 8 -5 0 -59 32 -120 70 -61 39 -116 72 -123
74 -7 2 -28 -1 -45 -6z"/>
<path d="M4219 8018 c0 -18 -2 -55 -4 -83 -4 -74 -16 -317 -20 -420 -2 -49 -7
-144 -10 -210 -4 -66 -9 -163 -11 -215 -2 -52 -6 -144 -9 -205 -13 -262 -15
-316 -20 -415 -11 -260 -16 -351 -20 -430 -8 -142 -18 -372 -19 -425 -1 -46 1
-50 22 -49 12 0 22 -4 22 -9 0 -5 6 -4 13 2 8 6 16 8 20 5 3 -3 131 -8 284
-10 153 -2 375 -6 493 -9 192 -4 796 -15 1020 -19 47 -1 91 -5 98 -9 6 -5 12
-4 12 1 0 9 164 7 180 -3 5 -3 10 -1 10 5 0 6 5 8 10 5 6 -4 115 -8 243 -10
257 -4 842 -15 1622 -30 165 -4 386 -8 490 -10 519 -9 902 -17 1017 -19 l127
-3 -4 41 c-3 22 -10 75 -15 116 -23 171 -28 211 -35 275 -3 22 -7 54 -10 70
-3 17 -8 46 -10 65 -10 75 -14 105 -15 105 -1 0 -3 18 -5 40 -4 39 -12 98 -21
160 -9 58 -13 90 -19 140 -10 80 -14 108 -18 135 -5 26 -16 106 -23 175 -5 40
-10 78 -18 125 -2 14 -7 48 -10 75 -6 52 -11 92 -21 160 -3 22 -8 58 -10 80
-3 22 -7 55 -10 72 -3 18 -8 54 -11 80 -2 27 -7 59 -9 73 -3 14 -8 45 -10 70
-12 98 -16 109 -43 109 -22 -1 -175 10 -227 15 -22 3 -83 8 -135 11 -52 4
-104 9 -115 11 -11 2 -63 7 -115 10 -52 3 -111 7 -130 10 -19 2 -66 6 -105 9
-38 2 -97 7 -130 10 -99 9 -156 14 -240 20 -44 4 -98 8 -120 10 -22 2 -67 6
-100 9 -109 8 -209 17 -260 22 -27 2 -81 6 -120 9 -38 2 -92 7 -120 10 -70 7
-159 15 -235 20 -82 6 -163 12 -243 19 -34 3 -96 9 -137 12 -41 3 -93 8 -115
10 -22 2 -75 6 -118 9 -43 3 -101 7 -130 10 -29 3 -83 8 -122 11 -38 3 -88 7
-110 9 -164 14 -246 21 -360 29 -44 4 -104 9 -132 11 -117 11 -161 15 -233 20
-41 3 -93 8 -115 10 -22 3 -74 7 -115 10 -41 3 -93 7 -115 9 -22 2 -80 7 -130
10 -49 4 -106 9 -125 11 -19 3 -71 7 -115 10 -44 3 -97 7 -118 10 -20 2 -77 7
-125 10 -169 12 -188 14 -242 19 -30 3 -88 9 -127 12 l-73 6 -1 -34z m1198
-553 c37 -2 115 -7 173 -11 137 -7 166 -10 177 -17 4 -3 8 -100 8 -216 0 -204
1 -211 20 -212 11 -1 38 -3 60 -4 22 -2 94 -7 160 -10 66 -4 138 -8 160 -10
22 -1 52 -3 67 -4 l27 -1 -3 -237 -3 -238 -214 3 c-118 1 -226 4 -241 6 l-28
4 0 -237 0 -237 -42 3 c-24 1 -131 5 -238 7 -107 2 -203 5 -213 5 -17 1 -18
16 -16 231 1 127 0 233 -3 235 -4 5 -294 15 -486 18 l-52 1 1 255 c0 140 3
260 6 267 2 7 10 11 16 9 12 -4 108 -11 287 -20 58 -3 135 -7 173 -9 l68 -5 0
82 c0 45 0 141 1 214 l2 132 25 3 c15 2 29 2 33 1 3 -2 37 -5 75 -8z m3616
-244 c77 -37 138 -96 175 -171 33 -68 36 -79 36 -165 0 -98 -30 -169 -97 -232
-77 -72 -135 -97 -235 -100 -159 -5 -286 72 -358 216 -24 48 -28 68 -28 146
-1 79 3 97 27 147 45 93 124 158 227 187 19 6 69 9 111 7 60 -3 91 -11 142
-35z m-958 -704 c93 -26 126 -45 188 -110 59 -61 100 -168 99 -254 0 -18 -1
-34 -2 -35 -1 -2 -3 -18 -6 -35 -10 -83 -89 -192 -171 -238 -145 -80 -320 -54
-434 66 -78 82 -106 154 -104 264 4 158 99 286 246 334 47 16 141 20 184 8z"/>
<path d="M10735 7028 c-34 -125 -117 -314 -229 -523 -21 -40 -20 -46 7 -40 12
3 33 7 47 9 14 2 36 8 50 14 14 5 37 12 51 15 l26 7 -14 -48 c-37 -121 -88
-253 -123 -318 -24 -45 -35 -76 -30 -85 5 -7 6 -17 4 -21 -3 -4 0 -8 5 -8 6 0
11 -6 11 -13 0 -17 30 -54 115 -144 79 -84 87 -97 53 -84 -22 8 -61 16 -123
25 -54 8 -102 20 -118 28 -24 12 -39 1 -28 -20 5 -9 28 -57 51 -107 24 -49 47
-91 52 -93 4 -2 8 -8 8 -13 0 -7 56 -96 70 -109 3 -3 32 -39 65 -80 32 -41 96
-113 142 -160 46 -46 83 -86 83 -87 0 -2 -46 -1 -102 3 -164 10 -188 11 -188
6 0 -8 73 -156 80 -162 3 -3 16 -25 29 -50 14 -25 27 -47 31 -50 3 -3 22 -27
41 -55 32 -46 132 -154 171 -184 15 -11 23 -4 68 64 27 43 50 83 50 90 0 8 4
15 8 17 8 3 42 101 37 106 -2 2 -27 -8 -57 -23 -78 -40 -147 -64 -153 -55 -3
5 -1 11 4 14 5 4 19 27 32 54 12 26 25 49 28 52 8 6 19 26 88 157 31 60 59
110 62 113 7 6 112 217 184 370 27 58 51 108 53 111 2 4 -14 18 -36 33 -48 32
-180 155 -180 168 0 5 4 6 10 3 9 -6 207 -63 243 -70 29 -6 30 -7 -86 118
-137 148 -267 323 -342 459 -33 62 -35 67 -16 65 12 -1 21 -5 21 -9 0 -4 3 -7
8 -6 4 1 23 -1 42 -5 66 -13 120 -17 120 -10 -1 7 -44 59 -105 125 -14 15 -25
31 -25 36 0 5 -6 15 -14 21 -12 10 -93 124 -121 169 -55 91 -115 195 -115 200
0 4 -7 15 -14 25 -12 15 -15 10 -31 -45z"/>
<path d="M10037 6448 c-20 -62 -35 -116 -34 -119 1 -3 -5 -14 -13 -23 -8 -10
-15 -24 -16 -30 -3 -20 -61 -153 -112 -256 -26 -52 -49 -99 -51 -104 -5 -12
100 2 116 16 27 22 32 1 9 -44 -13 -27 -22 -48 -20 -48 3 0 0 -6 -5 -12 -61
-75 -66 -83 -66 -125 -1 -24 2 -43 5 -43 3 0 6 -12 7 -27 2 -37 11 -109 17
-153 3 -19 8 -57 12 -85 3 -27 7 -57 9 -65 2 -8 7 -42 10 -75 4 -33 9 -71 11
-85 3 -14 7 -44 9 -67 2 -23 6 -55 9 -70 8 -41 18 -113 21 -153 1 -19 3 -35 4
-35 2 0 4 -13 6 -30 5 -42 17 -136 20 -160 2 -11 6 -42 9 -70 3 -27 9 -66 13
-85 3 -19 7 -46 8 -60 1 -14 5 -47 9 -75 24 -168 27 -190 41 -310 4 -27 8 -62
11 -76 2 -15 7 -47 10 -70 3 -24 7 -53 9 -64 1 -11 6 -45 9 -75 4 -30 9 -66
11 -80 2 -14 6 -47 9 -75 3 -27 9 -66 12 -85 8 -46 13 -85 20 -140 3 -25 7
-58 9 -75 3 -16 7 -54 10 -84 2 -30 7 -56 10 -59 5 -5 153 -4 395 3 334 9 680
17 795 19 72 1 136 5 142 9 6 4 14 4 16 0 4 -6 72 -9 72 -3 0 0 79 3 175 5 96
2 299 7 450 11 322 8 475 11 620 13 114 2 114 1 40 51 -12 8 -32 23 -43 32
-30 24 -33 26 -102 78 -33 24 -66 49 -72 55 -7 5 -23 18 -35 27 -21 15 -144
114 -252 201 -22 18 -55 47 -73 65 -18 18 -33 31 -33 28 0 -2 -34 29 -75 69
-41 41 -75 76 -75 79 0 7 30 0 99 -20 31 -10 61 -18 66 -20 6 -1 30 -8 55 -15
25 -7 48 -13 53 -15 4 -1 8 -2 10 -4 1 -1 9 -3 17 -5 14 -2 151 -41 177 -50 7
-2 -88 96 -210 218 -123 122 -236 238 -253 257 -70 83 -184 221 -184 225 0 2
33 2 73 -1 114 -8 177 -10 177 -6 0 2 -39 43 -87 91 -86 86 -153 157 -221 235
-51 57 -172 218 -172 229 0 4 -7 15 -15 24 -18 18 -9 37 14 28 9 -3 63 -8 120
-11 57 -2 108 -7 114 -11 21 -13 -7 20 -46 56 -44 39 -181 179 -247 251 -23
25 -81 99 -131 165 -49 66 -96 129 -104 140 -9 12 -15 14 -15 6 0 -13 -135
-289 -190 -386 -15 -28 -62 -107 -103 -175 -41 -69 -73 -127 -71 -128 3 -5 64
29 82 46 7 6 20 12 28 12 8 0 14 4 14 8 0 5 15 16 34 24 l34 17 -23 -62 c-28
-77 -94 -235 -108 -262 -6 -11 -12 -22 -13 -25 -8 -28 -30 -70 -36 -70 -4 0
-8 -5 -8 -12 0 -15 -83 -150 -137 -220 -24 -32 -41 -58 -38 -58 3 0 25 10 48
22 23 12 44 23 47 23 3 1 33 15 67 33 34 18 64 32 67 32 4 0 -20 -103 -31
-130 -3 -8 -7 -19 -8 -25 -32 -130 -217 -428 -357 -577 -34 -35 -36 -50 -5
-44 99 21 145 33 232 64 55 19 107 40 115 46 9 6 8 2 -3 -10 -27 -33 -220
-128 -282 -140 -5 -1 -28 -7 -50 -13 -71 -19 -165 -32 -165 -22 0 3 10 17 23
31 12 14 35 43 51 65 17 22 32 42 35 45 4 3 16 20 29 38 75 106 88 125 97 140
6 10 19 31 29 47 40 63 51 80 51 85 1 3 12 23 26 45 13 22 22 42 21 44 -2 2 1
7 6 10 8 5 92 172 92 183 0 2 -35 -13 -77 -33 -43 -21 -96 -40 -117 -43 -21
-4 -50 -9 -62 -12 -22 -6 -35 9 -16 18 4 2 23 23 42 48 19 25 37 47 40 50 3 3
17 23 30 45 13 22 26 42 30 45 3 3 18 29 34 59 l29 55 -43 35 c-120 98 -233
246 -309 406 -26 54 -53 118 -57 130 -1 6 -9 27 -18 48 l-16 37 52 -5 c112
-12 168 -14 168 -7 0 4 -21 30 -46 57 -59 66 -184 230 -184 243 0 6 -4 12 -9
14 -27 9 -192 380 -177 396 2 2 12 -1 23 -7 45 -24 161 -52 169 -40 2 4 1 9
-3 11 -11 4 -110 129 -167 208 -25 36 -50 70 -55 76 -33 41 -185 308 -186 328
0 5 -5 11 -11 13 -6 2 -26 -45 -47 -109z"/>
<path d="M2429 5858 c-20 -43 -115 -224 -138 -263 -10 -16 -29 -50 -43 -75
-14 -25 -44 -75 -66 -113 -23 -37 -42 -71 -42 -76 0 -5 -3 -11 -8 -13 -4 -1
-23 -28 -42 -58 -57 -92 -216 -331 -270 -405 -28 -38 -62 -88 -76 -109 -15
-22 -30 -44 -35 -50 -5 -6 -60 -78 -121 -161 -62 -82 -116 -154 -120 -160 -14
-17 -102 -130 -128 -164 -14 -18 -30 -38 -35 -44 -6 -7 -34 -42 -63 -79 -29
-37 -64 -80 -76 -95 -13 -15 -84 -100 -157 -188 -73 -88 -138 -165 -144 -171
-12 -13 -101 -117 -130 -151 -11 -14 -33 -40 -50 -58 -16 -18 -61 -69 -100
-112 -38 -43 -82 -91 -98 -106 -15 -16 -27 -30 -27 -32 0 -3 -78 -87 -186
-201 -23 -24 -40 -45 -38 -47 2 -2 32 -2 66 -1 35 2 167 5 293 8 127 3 230 6
230 6 0 0 97 3 215 5 503 11 623 14 627 19 3 3 15 1 28 -4 13 -5 26 -6 29 -3
5 6 254 13 548 16 82 1 148 6 148 10 0 4 8 3 19 -2 10 -6 20 -8 23 -6 5 5 458
17 710 19 87 1 158 3 158 6 0 3 120 6 267 8 147 2 270 5 272 8 3 2 6 28 7 57
1 28 5 111 8 182 4 72 9 173 11 225 2 52 7 147 10 210 3 63 8 160 10 215 3 55
7 147 9 205 3 58 8 164 11 235 3 72 8 168 11 215 2 46 6 140 9 208 3 68 7 127
9 131 3 4 -54 79 -125 167 -72 87 -160 195 -196 239 -76 94 -128 157 -163 196
-14 16 -41 49 -60 74 -19 25 -39 45 -43 45 -4 0 -38 -28 -74 -62 -89 -85 -90
-85 -163 -148 -36 -30 -66 -58 -68 -62 -2 -5 -8 -8 -14 -8 -6 0 -18 -8 -27
-17 -9 -10 -31 -28 -48 -41 -31 -21 -34 -22 -48 -5 -37 45 -421 536 -459 587
-24 33 -29 33 -47 -6z m28 -265 c-5 -7 4 -69 17 -133 15 -68 59 -236 64 -245
4 -5 7 -12 7 -15 1 -6 25 -80 32 -100 7 -17 7 -17 28 -90 20 -69 30 -228 20
-306 -4 -32 -10 -52 -12 -44 -2 8 -8 24 -13 35 -4 11 -20 52 -36 90 -29 74
-69 145 -82 145 -4 0 -25 -35 -47 -77 -22 -43 -55 -101 -72 -130 -18 -29 -33
-55 -33 -58 0 -6 -78 -120 -124 -180 -36 -49 -148 -164 -159 -165 -4 0 0 17 9
38 9 20 33 87 54 149 35 101 44 136 55 200 1 11 6 32 10 44 7 22 7 23 -11 9
-10 -8 -23 -19 -29 -25 -14 -14 -123 -85 -132 -85 -3 0 -14 -6 -22 -14 -9 -8
-47 -31 -86 -51 -38 -20 -75 -41 -82 -47 -7 -5 -17 -8 -23 -6 -8 2 35 70 80
125 6 7 15 24 22 38 6 14 15 25 20 25 4 0 8 5 8 10 0 6 20 39 45 74 25 36 45
70 45 75 0 6 3 11 8 11 4 0 21 23 37 51 45 76 48 82 70 114 32 48 44 68 62
103 9 17 20 32 25 32 4 0 8 5 8 11 0 5 35 70 78 142 43 73 94 160 113 194 19
35 38 63 42 63 5 0 6 -3 4 -7z m929 -182 c-4 -41 -23 -141 -42 -226 -15 -64
-29 -163 -27 -185 2 -14 3 -38 4 -53 0 -16 7 -46 14 -68 8 -21 14 -41 14 -44
1 -3 12 -26 25 -53 25 -50 75 -167 81 -192 2 -8 16 -55 30 -105 14 -49 27
-118 29 -153 2 -35 7 -66 10 -69 6 -7 26 40 32 77 3 14 7 32 10 40 6 16 12 97
19 255 2 61 7 128 10 150 5 40 34 135 40 135 5 0 85 -121 85 -129 1 -7 36 -51
42 -51 2 0 3 47 3 105 -1 58 2 105 6 105 11 0 49 -68 66 -118 20 -60 23 -160
7 -229 -17 -73 -25 -81 -66 -61 -47 22 -52 21 -55 -9 -3 -39 -29 -155 -54
-238 -33 -110 -103 -243 -162 -309 l-53 -59 -2 69 c-1 90 -11 177 -27 244 -3
14 -8 36 -11 50 -21 103 -112 328 -207 515 -66 129 -86 166 -128 235 -21 36
-42 72 -46 80 -4 8 -11 18 -16 21 -9 6 39 55 98 100 17 13 37 31 46 41 9 10
19 18 23 18 3 0 14 8 24 18 11 9 36 31 58 48 21 18 55 46 74 63 19 17 39 31
43 31 4 0 6 -22 3 -49z"/>
<path d="M4117 5438 c-6 -4 -14 -5 -17 -3 -3 2 -6 -13 -6 -33 -1 -21 -4 -100
-8 -177 -4 -77 -9 -178 -11 -225 -2 -47 -6 -132 -9 -190 -3 -58 -8 -166 -11
-240 -3 -74 -8 -169 -11 -210 -4 -71 -5 -83 -3 -112 0 -7 -2 -53 -5 -103 -6
-92 -12 -226 -21 -415 -3 -58 -7 -157 -10 -220 -3 -63 -8 -160 -10 -215 -3
-55 -7 -139 -10 -187 -5 -98 -11 -91 70 -90 22 0 153 3 290 7 138 3 337 8 443
10 106 2 196 7 201 10 6 3 12 1 16 -5 4 -6 11 -8 16 -4 10 6 63 7 574 19 354
8 694 16 1220 30 105 3 289 7 410 10 121 2 324 7 450 10 127 3 316 8 420 10
105 3 285 7 400 10 116 3 289 8 385 10 96 2 285 6 420 10 135 3 336 7 448 10
111 2 207 7 212 10 5 3 11 1 15 -5 4 -6 11 -7 18 -3 6 4 31 7 57 7 38 1 45 4
43 20 -5 65 -13 134 -16 151 -3 11 -8 47 -11 80 -4 33 -9 67 -11 75 -2 8 -6
40 -10 71 -3 31 -7 65 -9 76 -3 11 -7 44 -10 74 -3 30 -8 65 -10 79 -7 41 -14
91 -22 155 -3 33 -10 70 -15 83 -5 14 -5 21 0 17 6 -3 6 8 1 27 -5 18 -12 56
-15 83 -3 28 -8 66 -11 85 -3 19 -7 49 -9 65 -2 17 -7 53 -10 80 -4 28 -8 64
-10 80 -11 83 -15 113 -19 145 -3 19 -8 55 -11 80 -4 25 -8 56 -10 70 -8 45
-23 165 -23 180 0 8 -3 28 -7 44 -3 15 -8 49 -10 75 -2 25 -5 46 -5 46 -2 0
-6 26 -20 130 l-13 100 -111 1 c-61 1 -284 5 -496 9 -212 4 -481 8 -597 9
-117 0 -213 3 -213 6 0 3 -110 5 -245 5 -135 0 -245 2 -245 5 0 3 -116 6 -258
7 -141 1 -390 4 -552 8 -162 3 -411 7 -553 10 -141 2 -262 7 -267 10 -6 3 -10
1 -10 -5 0 -6 -5 -8 -11 -4 -6 3 -115 8 -243 10 -127 1 -352 5 -501 9 -148 3
-403 8 -565 11 -162 3 -394 7 -515 9 -121 3 -237 6 -258 7 -21 2 -43 0 -50 -4z
m1481 -859 l173 -1 -4 -408 c-2 -224 -6 -411 -9 -416 -3 -5 -2 -18 2 -29 4
-11 4 -32 -1 -47 -4 -15 -4 -30 1 -33 5 -3 7 -12 4 -20 -3 -7 -6 -112 -7 -232
l-2 -218 -70 -2 c-39 -2 -188 -4 -333 -6 l-262 -2 5 230 c3 126 7 327 10 445
3 118 7 316 10 439 2 123 7 226 9 228 3 3 1 15 -4 27 -18 47 -3 52 157 49 81
-1 226 -3 321 -4z m871 -15 c3 -3 6 -71 6 -153 1 -81 4 -152 8 -158 4 -7 4
-14 0 -16 -5 -3 -7 -31 -5 -64 1 -32 2 -71 2 -88 -1 -16 -1 -34 -1 -40 0 -5 2
-201 3 -435 l3 -425 -55 -2 c-30 -1 -170 -3 -310 -5 l-255 -3 3 485 c2 439 8
914 11 916 6 3 586 -8 590 -12z"/>
</g>
</svg>
