<?xml version="1.0" encoding="UTF-8"?><svg id="Layer_1" xmlns="http://www.w3.org/2000/svg" viewBox="0 0 928.86 537.06"><defs><style>.cls-1{fill:#7c7c7c;}.cls-2{fill:teal;}</style></defs><g id="g3576"><path id="ellipse101-6" class="cls-2" d="M475.6,14.74c-17.89-18.8-47.44-19.74-65.99-2.12-7.51,7.15-12.36,16.65-13.78,26.97-.63,3.22-.96,6.68-.85,10.34,.3,10.48,1.75,17.21-6.48,26.3-7.83,8.64-14.97,15.86-15.74,16.65,0,0-7.53,7.72-16.57,16.14-8.97,8.37-15.72,7.01-26.2,6.87-3.66-.04-7.11,.33-10.33,1-10.3,1.58-19.71,6.57-26.76,14.18-17.35,18.82-15.96,48.35,3.09,65.96,10.55,9.75,24.91,14.2,39,12.07,8.91-.37,15.21-.87,23.45,6.59,8.59,7.78,15.78,14.87,16.64,15.73,0,0,7.72,7.53,16.14,16.57,8.37,8.97,7.01,15.72,6.87,26.2-.01,.77,0,1.53,.02,2.28-.37,12.34,4.15,24.25,12.58,33.14,17.63,18.56,47.15,19.1,65.95,1.21,18.8-17.89,19.74-47.44,2.12-65.99-7.15-7.51-16.65-12.36-26.97-13.78-3.22-.63-6.68-.96-10.34-.85-10.48,.3-17.21,1.75-26.3-6.48-8.64-7.83-15.86-14.97-16.65-15.74,0,0-7.72-7.53-16.14-16.57-8.37-8.97-7.01-15.72-6.87-26.2,.04-3.66-.33-7.11-1-10.33-.21-1.27-.46-2.54-.77-3.78-.06-6.34,.87-11.63,6.77-18.15,7.78-8.59,14.87-15.78,15.73-16.64,0,0,7.53-7.72,16.57-16.14,8.97-8.37,15.72-7.01,26.2-6.87,.77,.01,1.53,0,2.28-.02,12.34,.37,24.25-4.15,33.14-12.58,18.53-17.65,19.08-47.17,1.2-65.97t0,0Z"/><path id="path2777" class="cls-1" d="M406.51,129.14c17.61-19.06,47.14-20.44,65.96-3.09,7.61,7.04,12.6,16.46,14.18,26.76,.67,3.21,1.06,6.66,1,10.33-.14,10.48-1.5,17.23,6.87,26.2,7.96,8.53,15.2,15.64,15.99,16.41,0,0,7.65,7.61,16.8,15.9,9.09,8.24,15.82,6.78,26.3,6.48,3.66-.1,7.12,.23,10.34,.85,10.32,1.43,19.81,6.28,26.97,13.78,17.63,18.56,16.68,48.11-2.12,65.99-10.41,9.9-24.71,14.56-38.82,12.64-8.91-.24-15.22-.65-23.35,6.93-8.48,7.9-15.56,15.1-16.39,15.97,0,0-7.61,7.65-15.9,16.8-8.24,9.09-6.78,15.82-6.48,26.3,.02,.77,.02,1.53,.01,2.28,.55,12.32-3.79,24.31-12.09,33.31-17.35,18.82-46.86,19.8-65.92,2.18-19.06-17.61-20.44-47.14-3.09-65.96,7.04-7.61,16.46-12.6,26.76-14.18,3.21-.67,6.66-1.06,10.33-1,10.48,.14,17.23,1.5,26.2-6.87,8.53-7.96,15.64-15.2,16.41-15.99,0,0,7.61-7.65,15.9-16.8,8.24-9.09,6.78-15.82,6.48-26.3-.1-3.66,.23-7.12,.85-10.34,.19-1.28,.43-2.54,.72-3.79-.03-6.34-1.04-11.62-7.03-18.05-7.9-8.48-15.1-15.56-15.97-16.39,0,0-7.65-7.61-16.8-15.9-9.09-8.24-15.82-6.78-26.3-6.48-.77,.02-1.53,.02-2.28,.01-12.32,.55-24.31-3.79-33.31-12.09-18.83-17.35-19.81-46.86-2.19-65.92h0Z"/><g id="path8781"><path class="cls-1" d="M303.15,317.22c7.34,4.69,15.75,6.96,24.31,6.81h.29c26.29,0,47.55-21.31,47.55-47.55s-21.31-47.55-47.55-47.55-47.55,21.31-47.55,47.55c-.05,17.3,9.18,32.42,22.95,40.73"/></g><g id="path2809"><path class="cls-2" d="M530.18,199.11c7.34,4.69,15.75,6.96,24.31,6.81h.29c26.29,0,47.55-21.31,47.55-47.55s-21.31-47.55-47.55-47.55-47.55,21.31-47.55,47.55c-.05,17.3,9.18,32.42,22.95,40.73"/></g><g id="path8180"><path class="cls-2" d="M1.16,536.18v-12.79H56.14c3.44,0,6.06-.87,7.9-2.62,1.84-1.74,2.76-4.07,2.76-6.98,0-3.25-.92-5.62-2.76-7.17-1.84-1.55-4.5-2.33-7.9-2.33H22.43c-3.44,0-6.54-.53-9.35-1.55-2.81-1.02-5.13-2.47-7.07-4.36-1.94-1.84-3.39-4.07-4.46-6.59-1.07-2.57-1.55-5.33-1.55-8.38s.48-5.72,1.45-8.23,2.42-4.7,4.36-6.49c1.94-1.84,4.26-3.25,7.12-4.31,2.81-1.02,6.06-1.55,9.69-1.55h52.65v12.79H22.62c-3,0-5.33,.78-6.93,2.37s-2.37,3.78-2.37,6.59,.82,4.99,2.47,6.54c1.65,1.55,3.88,2.33,6.68,2.33H56c7.51,0,13.18,1.74,17,5.23,3.83,3.49,5.76,8.82,5.76,15.94,0,3.1-.48,5.96-1.4,8.57-.92,2.62-2.33,4.89-4.21,6.83-1.89,1.94-4.21,3.39-7.07,4.5s-6.2,1.6-10.03,1.6H1.16v.05Z"/></g><path id="path8182" class="cls-2" d="M112.01,493.51h40.65v10.79h-40.65v-10.79Zm-22.09,42.67v-73.33h65.57v12.81h-52.76v47.71h52.86v12.81H89.92Z"/><g id="path8186"><path class="cls-2" d="M178.39,482.52v53.67h-12.21v-66.61c0-2.37,.58-4.21,1.74-5.62,1.16-1.36,2.76-2.08,4.8-2.08,.92,0,1.84,.19,2.71,.58,.87,.39,1.79,1.07,2.71,2.03l51.73,51.35v-53.67h12.21v67.19c0,2.42-.58,4.31-1.74,5.67-1.16,1.36-2.71,2.03-4.6,2.03-2.08,0-4.02-.92-5.86-2.71l-51.49-51.83Z"/></g><g id="path8190"><path class="cls-2" d="M254.52,536.18v-12.79h54.98c3.44,0,6.06-.87,7.9-2.62,1.84-1.74,2.76-4.07,2.76-6.98,0-3.25-.92-5.62-2.76-7.17-1.84-1.55-4.5-2.33-7.9-2.33h-33.71c-3.44,0-6.54-.53-9.35-1.55-2.81-1.02-5.13-2.47-7.07-4.36-1.94-1.84-3.39-4.07-4.46-6.59-1.07-2.57-1.55-5.33-1.55-8.38s.48-5.72,1.45-8.23,2.42-4.7,4.36-6.49c1.94-1.84,4.31-3.25,7.12-4.31,2.81-1.02,6.06-1.55,9.69-1.55h52.65v12.79h-52.61c-3,0-5.33,.78-6.93,2.37-1.6,1.6-2.37,3.78-2.37,6.59s.82,4.99,2.47,6.54c1.65,1.55,3.88,2.33,6.68,2.33h33.52c7.51,0,13.18,1.74,17,5.23,3.83,3.49,5.76,8.82,5.76,15.94,0,3.1-.48,5.96-1.4,8.57-.92,2.62-2.33,4.89-4.21,6.83-1.89,1.94-4.21,3.39-7.07,4.5-2.86,1.07-6.2,1.6-10.03,1.6h-54.93v.05Z"/></g><g id="path8194"><path class="cls-2" d="M394.63,523.38c3.34,0,6.44-.63,9.3-1.79,2.81-1.21,5.28-2.86,7.31-4.99,2.03-2.13,3.63-4.65,4.8-7.61,1.16-2.95,1.7-6.15,1.7-9.59s-.58-6.59-1.7-9.54c-1.16-2.91-2.76-5.43-4.8-7.51-2.03-2.08-4.5-3.73-7.31-4.89-2.81-1.16-5.91-1.74-9.3-1.74h-17.87c-3.29,0-6.35,.58-9.11,1.74-2.81,1.16-5.18,2.81-7.22,4.89-2.03,2.08-3.58,4.55-4.75,7.46-1.16,2.91-1.7,6.1-1.7,9.59s.58,6.64,1.7,9.59c1.16,2.95,2.71,5.47,4.75,7.61,2.03,2.13,4.41,3.78,7.22,4.99s5.81,1.79,9.11,1.79h17.87Zm-17.83,12.79c-5.13,0-9.83-.97-14.19-2.86-4.36-1.94-8.09-4.55-11.29-7.85-3.2-3.34-5.67-7.27-7.46-11.87-1.79-4.55-2.66-9.49-2.66-14.82s.87-10.27,2.66-14.73c1.79-4.46,4.26-8.23,7.46-11.34,3.2-3.15,6.98-5.52,11.29-7.27,4.36-1.7,9.06-2.57,14.19-2.57h17.87c5.33,0,10.17,.87,14.58,2.62,4.41,1.74,8.19,4.21,11.34,7.36s5.62,6.93,7.36,11.34c1.74,4.41,2.62,9.25,2.62,14.58s-.87,10.27-2.66,14.82c-1.79,4.55-4.26,8.53-7.46,11.87-3.2,3.34-6.98,5.96-11.34,7.85-4.36,1.94-9.2,2.86-14.44,2.86h-17.87Z"/></g><g id="path8198"><path class="cls-1" d="M440.95,536.18v-73.34h12.79v60.5h49.31v12.79h-62.1v.05Z"/></g><g id="path8202"><path class="cls-1" d="M512.27,536.18v-73.34h12.79v60.5h49.31v12.79h-62.1v.05Z"/></g><rect id="path8204" class="cls-1" x="584.29" y="462.84" width="12.81" height="73.33"/><g id="path8208"><path class="cls-1" d="M643.94,536.18c-5.09,0-9.83-.97-14.14-2.86-4.31-1.94-8.09-4.55-11.29-7.85-3.2-3.34-5.67-7.27-7.46-11.87-1.79-4.55-2.66-9.49-2.66-14.82s.87-10.27,2.66-14.73c1.79-4.46,4.26-8.23,7.46-11.34,3.2-3.15,6.98-5.52,11.29-7.27,4.36-1.7,9.06-2.57,14.19-2.57h39.77v12.79h-39.77c-3.29,0-6.35,.58-9.11,1.74-2.81,1.16-5.18,2.81-7.22,4.89s-3.58,4.55-4.75,7.46c-1.16,2.91-1.7,6.1-1.7,9.59s.58,6.64,1.7,9.59c1.16,2.95,2.71,5.47,4.75,7.61,2.03,2.13,4.41,3.78,7.22,4.99,2.81,1.21,5.81,1.79,9.11,1.79h31.39v-19.09h-33.08v-10.8h45.92v42.68h-44.27v.05Z"/></g><path id="path8210" class="cls-1" d="M722.18,493.51h40.65v10.79h-40.65v-10.79Zm-22.08,42.67v-73.33h65.57v12.81h-52.75v47.71h52.86v12.81h-65.68Z"/><g id="path8214"><path class="cls-1" d="M788.54,482.52v53.67h-12.21v-66.61c0-2.37,.58-4.21,1.74-5.62,1.16-1.36,2.76-2.08,4.8-2.08,.92,0,1.84,.19,2.71,.58,.87,.39,1.79,1.07,2.71,2.03l51.73,51.35v-53.67h12.21v67.19c0,2.42-.58,4.31-1.74,5.67-1.16,1.36-2.71,2.03-4.6,2.03-2.08,0-4.02-.92-5.86-2.71l-51.49-51.83Z"/></g><g id="path8218"><path class="cls-1" d="M888.22,536.18v-60.5h-27.85v-12.79h68.5v12.79h-27.85v60.5h-12.79Z"/></g></g></svg>