<svg xmlns="http://www.w3.org/2000/svg"><defs id="SvgjsDefs1001"/><g id="SvgjsG1007" featurekey="root" fill="#228cf6"/><g id="SvgjsG1008" featurekey="symbol1" fill="#092534" transform="matrix(0.7,0,0,0.7,0,0)"><g id="SvgjsG1009"><path xmlns="http://www.w3.org/2000/svg" fill="#092534" d="M87.499,53.748l6.302,6.301L100,53.851L69.706,23.558l-7.86,7.86l-12.299-12.3v-8.994h12.871V0H47.517  v10.125h0.006v8.994L0,66.641l9.432,9.432l8.519-8.52l7.239,7.238l11.562-11.562l15.656,15.655l13.438-13.437l5.92,5.921  l5.814-5.815l10.287,10.29l9.201-9.202L85.837,55.409L87.499,53.748z M69.706,26.435l0.002,0.002v12.843l-6.424-6.423L69.706,26.435  z M49.552,2.034h10.835V8.09H49.552V2.034z M25.19,71.928l-7.239-7.237l-8.519,8.52l-6.571-6.57l45.674-45.673V72.15L36.753,60.367  L25.19,71.928z"/></g></g><g id="SvgjsG1010" featurekey="text1" fill="#092534" transform="matrix(1.949648648079225,0,0,1.949648648079225,87.66042152933844,-5.4964846214624075)"><path d="M9.88 10 l2.2 0 l0 14 l-2.2 0 l0 -5.92 l-6.48 0 l0 5.92 l-2.2 0 l0 -14 l2.2 0 l0 6.04 l6.48 0 l0 -6.04 z M17.78 10 l0 1.84 l-2.24 0 l0 -1.84 l2.24 0 z M22.62 10 l0 1.84 l-2.24 0 l0 -1.84 l2.24 0 z M18.14 24.16 c-2 0 -3.96 -1.3 -3.96 -4.54 l0 -6.02 l2.16 0 l0 5.9 c0 1.98 0.94 2.76 2.28 2.76 c1.72 0 2.84 -1.6 3.08 -2.62 l0 -6.04 l2.16 0 l0 10.4 l-2.16 0 l0 -2.2 c-0.2 0.64 -1.4 2.36 -3.56 2.36 z M31.36 15.4 l-2.2 0 l0 5.82 c0 0.56 0.2 1 0.84 1 c0.54 0 0.92 -0.1 1.36 -0.28 l0 1.82 c-0.44 0.22 -1.02 0.36 -1.92 0.36 c-1.3 0 -2.44 -0.52 -2.44 -2.82 l0 -5.9 l-1.44 0 l0 -1.8 l1.44 0 l0 -2.44 l2.16 0 l0 2.44 l2.2 0 l0 1.8 z M38.46 15.4 l-2.2 0 l0 5.82 c0 0.56 0.2 1 0.84 1 c0.54 0 0.92 -0.1 1.36 -0.28 l0 1.82 c-0.44 0.22 -1.02 0.36 -1.92 0.36 c-1.3 0 -2.44 -0.52 -2.44 -2.82 l0 -5.9 l-1.44 0 l0 -1.8 l1.44 0 l0 -2.44 l2.16 0 l0 2.44 l2.2 0 l0 1.8 z M45.24 13.42 c2.36 0 5.56 1.8 5.06 6.16 l-8.28 0 c0.32 1.86 1.8 2.78 3.48 2.78 c1.38 0 2.12 -0.36 2.88 -0.96 l1.22 1.16 c-0.92 1.04 -2.24 1.64 -4.16 1.64 c-2.64 0 -5.58 -1.8 -5.58 -5.38 c0 -3.6 3.02 -5.4 5.38 -5.4 z M45.24 15.28 c-1.34 0 -2.84 0.9 -3.2 2.72 l6.36 0 c-0.24 -1.82 -1.82 -2.72 -3.16 -2.72 z M57.88 13.44 c2 0 3.96 1.3 3.96 4.54 l0 6.02 l-2.16 0 l0 -5.9 c0 -1.98 -0.94 -2.76 -2.28 -2.76 c-1.72 0 -2.84 1.6 -3.08 2.62 l0 6.04 l-2.16 0 l0 -10.4 l2.16 0 l0 2.2 c0.2 -0.64 1.4 -2.36 3.56 -2.36 z M71.94 10 l0 9.3 c0 3.64 -2.46 4.94 -4.6 4.94 c-1.9 0 -3.22 -0.8 -4 -1.92 l1.34 -1.58 c0.54 0.74 1.42 1.38 2.56 1.38 c1.18 0 2.5 -0.58 2.5 -3.08 l0 -9.04 l2.2 0 z M79.02 13.42 c1.88 0 3.12 1.12 3.38 1.8 l0 -1.62 l2.16 0 l0 10.4 l-2.16 0 l0 -1.72 c-0.26 0.84 -1.5 1.92 -3.38 1.92 c-2.36 0 -5.18 -1.76 -5.18 -5.4 c0 -3.58 2.82 -5.38 5.18 -5.38 z M79.3 15.34 c-1.62 0 -3.36 1.16 -3.36 3.46 c0 2.32 1.74 3.48 3.36 3.48 s3.2 -1.14 3.2 -3.48 c0 -2.32 -1.58 -3.46 -3.2 -3.46 z M99.69999999999999 13.44 c2 0 3.98 1.28 3.98 4.66 l0 5.9 l-2.16 0 l0 -5.9 c0 -1.78 -0.9 -2.76 -2.42 -2.76 c-1.58 0 -2.54 1.32 -2.8 2.62 l0 6.04 l-2.16 0 l0 -5.9 c0 -1.78 -1.1 -2.76 -2.44 -2.76 c-1.66 0 -2.56 1.32 -2.78 2.62 l0 6.04 l-2.16 0 l0 -10.4 l2.16 0 l0 2.26 c0.08 -0.66 1.1 -2.42 3.28 -2.42 c1.42 0 2.98 0.78 3.7 2.5 c0.32 -0.9 1.56 -2.5 3.8 -2.5 z"/></g></svg>