<?xml version="1.0" encoding="UTF-8" standalone="no"?><!DOCTYPE svg PUBLIC "-//W3C//DTD SVG 1.1//EN" "http://www.w3.org/Graphics/SVG/1.1/DTD/svg11.dtd"><svg width="100%" height="100%" viewBox="0 0 1209 230" version="1.1" xmlns="http://www.w3.org/2000/svg" xmlns:xlink="http://www.w3.org/1999/xlink" xml:space="preserve" xmlns:serif="http://www.serif.com/" style="fill-rule:evenodd;clip-rule:evenodd;stroke-linejoin:round;stroke-miterlimit:1.41421;"><path id="SvgjsG1009" d="M255.205,156.765l18.381,18.378l18.081,-18.078l-88.358,-88.354l-22.925,22.925l-35.872,-35.875l0,-26.233l37.541,0l0,-29.528l-43.462,0l0,29.531l0.018,0l0,26.233l-138.609,138.606l27.51,27.51l24.847,-24.85l21.114,21.11l33.722,-33.722l45.664,45.66l39.194,-39.191l17.266,17.27l16.958,-16.961l30.004,30.013l26.836,-26.839l-32.757,-32.76l4.847,-4.845Zm-51.896,-79.663l0.006,0.006l0,37.459l-18.737,-18.734l18.731,-18.731Zm-58.782,-71.17l31.602,0l0,17.664l-31.602,0l0,-17.664Zm-71.056,203.858l-21.114,-21.108l-24.847,24.85l-19.165,-19.162l133.215,-133.213l0,149.281l-34.364,-34.368l-33.725,33.72Z" style="fill:#555;fill-rule:nonzero;"/><path id="SvgjsG1010" d="M445.512,58.333l17.872,0l0,113.73l-17.872,0l0,-48.091l-52.64,0l0,48.091l-17.872,0l0,-113.73l17.872,0l0,49.066l52.64,0l0,-49.066Zm64.176,0l0,14.948l-18.196,0l0,-14.948l18.196,0Zm39.318,0l0,14.948l-18.197,0l0,-14.948l18.197,0Zm-36.393,115.03c-16.247,0 -32.17,-10.561 -32.17,-36.881l0,-48.904l17.547,0l0,47.929c0,16.085 7.636,22.421 18.522,22.421c13.972,0 23.071,-12.998 25.02,-21.284l0,-49.066l17.547,0l0,84.485l-17.547,0l0,-17.872c-1.624,5.199 -11.372,19.172 -28.919,19.172Zm107.393,-71.163l-17.872,0l0,47.279c0,4.55 1.625,8.124 6.824,8.124c4.387,0 7.473,-0.812 11.048,-2.275l0,14.785c-3.575,1.787 -8.286,2.925 -15.597,2.925c-10.561,0 -19.822,-4.225 -19.822,-22.909l0,-47.929l-11.698,0l0,-14.622l11.698,0l0,-19.821l17.547,0l0,19.821l17.872,0l0,14.622Zm57.677,0l-17.872,0l0,47.279c0,4.55 1.625,8.124 6.824,8.124c4.387,0 7.474,-0.812 11.048,-2.275l0,14.785c-3.574,1.787 -8.286,2.925 -15.597,2.925c-10.561,0 -19.822,-4.225 -19.822,-22.909l0,-47.929l-11.698,0l0,-14.622l11.698,0l0,-19.821l17.547,0l0,19.821l17.872,0l0,14.622Zm55.078,-16.084c19.171,0 45.166,14.622 41.105,50.041l-67.263,0c2.599,15.11 14.622,22.583 28.27,22.583c11.21,0 17.222,-2.924 23.395,-7.798l9.911,9.423c-7.474,8.448 -18.197,13.323 -33.794,13.323c-21.446,0 -45.329,-14.623 -45.329,-43.705c0,-29.245 24.533,-43.867 43.705,-43.867Zm0,15.11c-10.886,0 -23.071,7.311 -25.996,22.096l51.666,0c-1.95,-14.785 -14.785,-22.096 -25.67,-22.096Zm102.681,-14.948c16.247,0 32.169,10.561 32.169,36.881l0,48.904l-17.547,0l0,-47.929c0,-16.085 -7.636,-22.421 -18.521,-22.421c-13.973,0 -23.071,12.998 -25.021,21.284l0,49.066l-17.547,0l0,-84.485l17.547,0l0,17.872c1.625,-5.199 11.373,-19.172 28.92,-19.172Zm114.217,-27.945l0,75.549c0,29.57 -19.984,40.13 -37.368,40.13c-15.435,0 -26.158,-6.498 -32.494,-15.597l10.885,-12.835c4.387,6.012 11.535,11.211 20.796,11.211c9.586,0 20.309,-4.712 20.309,-25.021l0,-73.437l17.872,0Zm57.515,27.783c15.272,0 25.345,9.098 27.457,14.622l0,-13.16l17.547,0l0,84.485l-17.547,0l0,-13.973c-2.112,6.824 -12.185,15.598 -27.457,15.598c-19.172,0 -42.08,-14.298 -42.08,-43.868c0,-29.082 22.908,-43.704 42.08,-43.704Zm2.274,15.597c-13.16,0 -27.295,9.423 -27.295,28.107c0,18.847 14.135,28.27 27.295,28.27c13.16,0 25.995,-9.26 25.995,-28.27c0,-18.846 -12.835,-28.107 -25.995,-28.107Zm165.72,-15.435c16.247,0 32.332,10.398 32.332,37.856l0,47.929l-17.547,0l0,-47.929c0,-14.46 -7.311,-22.421 -19.659,-22.421c-12.835,0 -20.634,10.723 -22.746,21.284l0,49.066l-17.547,0l0,-47.929c0,-14.46 -8.935,-22.421 -19.821,-22.421c-13.485,0 -20.796,10.723 -22.583,21.284l0,49.066l-17.547,0l0,-84.485l17.547,0l0,18.359c0.649,-5.361 8.935,-19.659 26.645,-19.659c11.535,0 24.208,6.337 30.057,20.309c2.599,-7.311 12.673,-20.309 30.869,-20.309Z" style="fill:#555;fill-rule:nonzero;"/></svg>