<?xml version="1.0" encoding="UTF-8" standalone="no"?><!DOCTYPE svg PUBLIC "-//W3C//DTD SVG 1.1//EN" "http://www.w3.org/Graphics/SVG/1.1/DTD/svg11.dtd"><svg width="100%" height="100%" viewBox="0 0 5038 959" version="1.1" xmlns="http://www.w3.org/2000/svg" xmlns:xlink="http://www.w3.org/1999/xlink" xml:space="preserve" xmlns:serif="http://www.serif.com/" style="fill-rule:evenodd;clip-rule:evenodd;stroke-linejoin:round;stroke-miterlimit:1.41421;"><g id="Layer1"><rect x="-57.76" y="-75.381" width="5692.36" height="1103.75"/></g><path d="M410.783,243.298l425.099,-194.535l380.668,273.79l-67.247,97.27l-12.008,-94.867l-308.618,-201.743l-329.031,144.103l-12.567,329.037l-76.296,-353.055Z" style="fill:#fff;"/><path d="M1274.19,418.621c-6.727,23.684 -18.411,50.831 -32.222,73.504c8.044,-0.785 16.088,-2.812 24.132,-6.534c-5.457,19.208 -9.899,34.604 -20.417,51.789c6.638,15.764 17.812,24.001 27.659,34.147c-8.948,-3.271 -26.613,-4.292 -37.164,-8.368c9.106,26.735 30.174,54.42 56.91,79.391l-35.142,-1.96c11.297,25.882 26.486,47.355 42.841,60.08c9.163,-9.978 16.237,-25.241 18.176,-34.417c-7.692,4.325 -18.262,9.598 -25.954,10.887c18.208,-31.717 33.567,-59.3 53.8,-103.164c-6.956,-3.674 -15.983,-11.492 -26.986,-23.262l34.38,9.638c-22.114,-24.298 -45.849,-49.851 -57.449,-76.984c7.184,2.941 15.351,4.898 25.471,4.903c-18.115,-19.01 -33.967,-42.545 -48.035,-69.65Z" style="fill:#fff;"/><path d="M1207.69,876.035l-40.249,-299.968c8.519,-8.235 9.663,-13.628 14.172,-24.272c-11.399,5.376 -12.732,5.089 -17.71,4.045c13.893,-26.233 24.223,-51.957 31.034,-77.176c12.313,25.809 28.825,51.616 51.258,77.426c-6.394,-1.277 -15.992,-2.035 -23.99,-7.327c9.638,36.38 30.158,62.741 49.916,83.939c-5.194,0.797 -14.564,-0.729 -26.56,-1.973c11.803,32.492 27.499,59.798 51.449,76.095c-4.98,11.542 -13.401,24.23 -25.602,38.178c15.326,-1.47 26.32,-6.035 34.564,-12.564c-13.63,31.18 -32.891,61.161 -55.627,88.294c31.195,-3.393 51.043,-13.921 62.275,-23.845c-18.73,8.556 -34.422,13.205 -47.534,14.54c28.408,-31.453 46.003,-61.965 51.136,-91.393l-28.638,14.538c12.245,-16.369 23.484,-28.046 44.249,-84.188l-24.272,14.478c21.256,-33.98 35.575,-61.026 44.873,-83.052c15.796,25.225 37.547,49.366 63.459,72.75l-32.428,-1.96c14.923,24.073 36.207,47.569 61.248,70.724l-30.717,-1.388c21.193,27.554 47.918,55.111 78.309,82.666l-59.667,-17.26c25.105,28.844 97.89,80.884 97.89,80.884l-322.838,7.809Z" style="fill:#fff;"/><path d="M47.592,904.088c0,0 183.963,-190.83 258.719,-346.169l58.122,74.21c13.748,-9.491 30.444,-23.894 49.953,-42.988l68.21,82.858l-10.365,221.82l-424.639,10.269Zm324.249,-259.923l44.276,-36.757c-1.125,30.838 -17.262,51.456 -2.472,79.474c11.511,21.809 18.886,51.456 17.09,62.538c0.573,0.418 8.146,-8.694 7.491,-41.822c-0.153,-7.888 1.76,-31.211 6.711,-36.284l14.62,22.971l0,-27.566c9.761,12.07 15.442,29.277 6.264,51.376l-10.442,-5.431c-4.956,34.216 -14.953,60.182 -32.162,74.347c1.42,-29.512 -5.925,-67.58 -51.376,-142.846Zm-144.518,74.347c22.34,-32.005 49.221,-73.108 79.36,-127.395c0.741,15.291 8.676,43.533 13.252,55.616c9.873,26.061 7.886,43.272 5.961,57.16c-3.367,-9.449 -6.935,-22.99 -15.871,-34.669c-22.988,45.963 -40.376,65.458 -52.211,73.513c8.732,-18.098 13.961,-36.2 17.125,-54.298c-5.52,5.711 -15.293,13.193 -47.616,30.073Z" style="fill:#fff;"/><path d="M498.262,610.908l665.371,12.641l34.022,252.728l-712.806,17.237l13.413,-282.606Zm195.137,100.579l-75.672,-0.888l-3.789,165.441l77.536,-0.942l1.925,-163.611Zm12.231,0.144l-1.92,163.32l73.222,-0.89l-1.5,-161.609l-69.802,-0.821Zm-192.937,-404.776l615.176,51.01l33.877,251.663l-662.82,-12.592l13.767,-290.081Zm440.641,177.611c23.174,0.359 41.986,19.681 41.983,43.125c-0.002,23.444 -18.816,42.186 -41.99,41.827c-23.174,-0.358 -41.986,-19.681 -41.983,-43.125c0,-23.442 18.816,-42.184 41.99,-41.827Zm-317.315,-59.863l0.548,-50.498l57.221,3.576l0.221,50.492l57.337,3.527l-0.58,55.982l-56.503,-1.725l0.24,54.443l-59.723,-1.43l0.594,-54.809l-63.566,-1.939l0.66,-61.529l63.551,3.91Zm420.089,-25.63c23.447,0.89 42.485,20.196 42.485,43.088c0,22.889 -19.038,40.75 -42.485,39.86c-23.447,-0.89 -42.484,-20.196 -42.484,-43.088c0,-22.889 19.037,-40.751 42.484,-39.86Zm-543.084,-99.104l1.032,-21.746l313.645,-135.472l296.384,187.107l2.829,21.014l-613.89,-50.903Z" style="fill:#fff;"/><path d="M3079,635.154c6.318,0 11.298,2.915 14.943,8.746c3.644,5.831 5.467,13.849 5.467,24.054c0,19.437 -4.617,34.501 -13.849,45.191c-20.896,25.755 -43.734,46.893 -68.517,63.414c-24.782,16.522 -53.209,24.783 -85.281,24.783c-59.283,0 -100.587,-24.783 -123.912,-74.347c-12.634,20.409 -29.399,37.902 -50.294,52.48c-20.895,14.578 -43.248,21.867 -67.059,21.867c-46.163,0 -80.057,-18.83 -101.681,-56.49c-21.624,-37.659 -32.436,-88.56 -32.436,-152.703c0,-23.811 1.215,-50.294 3.645,-79.45l-29.885,0c-14.578,0 -24.418,-2.673 -29.52,-8.018c-5.102,-5.345 -7.654,-13.849 -7.654,-25.511c0,-27.213 10.934,-40.819 32.801,-40.819l44.462,0c9.233,-51.508 22.11,-98.158 38.632,-139.948c16.522,-41.79 36.445,-75.076 59.77,-99.859c23.324,-24.782 48.593,-37.173 75.805,-37.173c20.409,0 36.445,8.989 48.107,26.969c11.662,17.979 17.494,40.575 17.494,67.787c0,68.516 -26.484,129.258 -79.45,182.224l66.329,0c9.233,-51.508 22.11,-98.158 38.632,-139.948c16.522,-41.79 36.445,-75.076 59.769,-99.859c23.325,-24.782 48.594,-37.173 75.806,-37.173c20.409,0 36.445,8.989 48.107,26.969c11.662,17.979 17.493,40.575 17.493,67.787c0,68.516 -26.483,129.258 -79.449,182.224l66.329,0c7.775,0 13.363,1.701 16.765,5.103c3.401,3.401 5.102,9.718 5.102,18.951c0,33.529 -27.455,50.294 -82.365,50.294l-88.197,0c-1.457,23.325 -2.186,47.135 -2.186,71.432c0,50.537 5.952,86.01 17.858,106.419c11.905,20.409 30.735,30.613 56.489,30.613c20.895,0 39.361,-6.317 55.396,-18.951c16.036,-12.634 34.987,-31.586 56.854,-56.854c5.831,-6.803 12.391,-10.204 19.68,-10.204Zm-354.243,-403.809c-7.289,0 -15.429,9.111 -24.418,27.333c-8.99,18.223 -17.494,43.491 -25.512,75.806c-8.018,32.314 -14.699,68.151 -20.045,107.512c28.67,-24.783 50.173,-52.602 64.508,-83.459c14.335,-30.857 21.502,-58.919 21.502,-84.187c0,-28.67 -5.345,-43.005 -16.035,-43.005Zm226.687,0c-7.289,0 -15.429,9.111 -24.419,27.333c-8.989,18.223 -17.493,43.491 -25.511,75.806c-8.018,32.314 -14.699,68.151 -20.045,107.512c28.67,-24.783 50.173,-52.602 64.508,-83.459c14.335,-30.857 21.502,-58.919 21.502,-84.187c0,-28.67 -5.345,-43.005 -16.035,-43.005Zm-245.639,489.818c14.578,0 29.156,-6.803 43.734,-20.409c14.578,-13.606 26.969,-30.37 37.174,-50.294c-2.43,-15.064 -3.645,-34.501 -3.645,-58.311c0,-23.811 1.215,-50.294 3.645,-79.45l-138.491,0c-1.457,23.325 -2.186,47.135 -2.186,71.432c0,49.079 5.223,84.187 15.671,105.325c10.448,21.138 25.147,31.707 44.098,31.707Z" style="fill:#fff;"/><path d="M4576.89,801.342c-18.466,0 -31.464,-9.719 -38.996,-29.156c-7.532,-19.437 -11.298,-50.537 -11.298,-93.299c0,-63.171 8.989,-123.183 26.969,-180.037c4.373,-14.092 11.541,-24.418 21.502,-30.978c9.962,-6.56 23.932,-9.84 41.912,-9.84c9.719,0 16.522,1.214 20.409,3.644c3.887,2.43 5.831,7.046 5.831,13.849c0,7.775 -3.644,25.269 -10.933,52.481c-4.86,19.437 -8.747,36.323 -11.663,50.658c-2.915,14.335 -5.345,32.193 -7.289,53.574c13.121,-37.903 28.792,-69.974 47.014,-96.214c18.223,-26.241 36.931,-45.799 56.125,-58.677c19.195,-12.877 37.296,-19.315 54.303,-19.315c17.008,0 29.035,3.887 36.081,11.662c7.046,7.775 10.569,19.68 10.569,35.716c0,15.55 -4.617,43.734 -13.85,84.552c-3.887,17.493 -6.56,30.614 -8.017,39.36c16.035,-40.818 33.893,-74.104 53.574,-99.859c19.68,-25.754 38.996,-44.098 57.947,-55.031c18.951,-10.934 36.445,-16.4 52.48,-16.4c15.55,0 27.334,4.008 35.352,12.026c8.018,8.018 12.027,19.802 12.027,35.352c0,12.634 -2.673,36.445 -8.018,71.432c-4.859,29.642 -8.747,57.704 -11.662,84.187c-2.916,26.484 -4.374,56.004 -4.374,88.561c0,18.466 -3.766,31.707 -11.298,39.725c-7.532,8.018 -19.801,12.027 -36.809,12.027c-16.036,0 -27.698,-4.13 -34.987,-12.391c-7.289,-8.261 -10.934,-20.652 -10.934,-37.174c0,-19.437 3.402,-51.509 10.205,-96.214c5.831,-38.875 8.747,-63.657 8.747,-74.348c0,-7.775 -2.673,-11.662 -8.018,-11.662c-6.317,0 -15.307,8.139 -26.969,24.418c-11.663,16.279 -23.325,37.781 -34.987,64.507c-11.663,26.726 -21.138,54.91 -28.427,84.552c-5.346,23.325 -11.541,38.875 -18.587,46.65c-7.046,7.775 -18.344,11.662 -33.894,11.662c-16.036,0 -28.062,-7.653 -36.08,-22.96c-8.018,-15.307 -12.027,-33.894 -12.027,-55.761c0,-18.465 2.43,-45.191 7.289,-80.179c3.887,-31.099 5.831,-51.508 5.831,-61.227c0,-7.775 -2.673,-11.662 -8.018,-11.662c-7.289,0 -16.521,8.747 -27.698,26.24c-11.176,17.494 -21.988,39.846 -32.436,67.059c-10.447,27.212 -18.83,53.938 -25.147,80.178c-5.345,22.839 -11.541,38.267 -18.587,46.285c-7.046,8.018 -18.101,12.027 -33.164,12.027Z" style="fill:#fff;"/><text x="1517.71px" y="797.698px" style="font-family:'Pacifico-Regular', 'Pacifico';font-size:728.897px;fill:#fff;">Hü<tspan x="3005.39px " y="797.698px ">e</tspan>nJ<tspan x="4147.57px " y="797.698px ">a</tspan></text></svg>