<?xml version="1.0" encoding="UTF-8" standalone="no"?>
<!DOCTYPE svg PUBLIC "-//W3C//DTD SVG 1.1//EN" "http://www.w3.org/Graphics/SVG/1.1/DTD/svg11.dtd">
<svg width="100%" height="100%" viewBox="0 0 5038 959" version="1.1" xmlns="http://www.w3.org/2000/svg" xmlns:xlink="http://www.w3.org/1999/xlink" xml:space="preserve" xmlns:serif="http://www.serif.com/" style="fill-rule:evenodd;clip-rule:evenodd;stroke-linejoin:round;stroke-miterlimit:1.41421;">
    <g transform="matrix(1.09285,0,0,1.09285,-42.2562,-47.1168)">
        <path d="M410.783,243.298L835.882,48.763L1216.55,322.553L1149.3,419.823L1137.3,324.956L828.677,123.213L499.646,267.316L487.079,596.353L410.783,243.298Z" style="fill:rgb(59,59,59);"/>
        <path d="M1274.19,418.621C1267.46,442.305 1255.78,469.452 1241.97,492.125C1250.01,491.34 1258.06,489.313 1266.1,485.591C1260.64,504.799 1256.2,520.195 1245.68,537.38C1252.32,553.144 1263.5,561.381 1273.34,571.527C1264.39,568.256 1246.73,567.235 1236.18,563.159C1245.28,589.894 1266.35,617.579 1293.09,642.55L1257.95,640.59C1269.24,666.472 1284.43,687.945 1300.79,700.67C1309.95,690.692 1317.02,675.429 1318.96,666.253C1311.27,670.578 1300.7,675.851 1293.01,677.14C1311.22,645.423 1326.58,617.84 1346.81,573.976C1339.85,570.302 1330.83,562.484 1319.82,550.714L1354.2,560.352C1332.09,536.054 1308.35,510.501 1296.75,483.368C1303.94,486.309 1312.11,488.266 1322.23,488.271C1304.11,469.261 1288.26,445.726 1274.19,418.621Z" style="fill:rgb(59,59,59);"/>
        <path d="M1207.69,876.035L1167.44,576.067C1175.96,567.832 1177.1,562.439 1181.61,551.795C1170.21,557.171 1168.88,556.884 1163.9,555.84C1177.8,529.607 1188.13,503.883 1194.94,478.664C1207.25,504.473 1223.76,530.28 1246.19,556.09C1239.8,554.813 1230.2,554.055 1222.2,548.763C1231.84,585.143 1252.36,611.504 1272.12,632.702C1266.93,633.499 1257.56,631.973 1245.56,630.729C1257.36,663.221 1273.06,690.527 1297.01,706.824C1292.03,718.366 1283.61,731.054 1271.41,745.002C1286.73,743.532 1297.73,738.967 1305.97,732.438C1292.34,763.618 1273.08,793.599 1250.35,820.732C1281.54,817.339 1301.39,806.811 1312.62,796.887C1293.89,805.443 1278.2,810.092 1265.09,811.427C1293.49,779.974 1311.09,749.462 1316.22,720.034L1287.58,734.572C1299.83,718.203 1311.07,706.526 1331.83,650.384L1307.56,664.862C1328.82,630.882 1343.14,603.836 1352.43,581.81C1368.23,607.035 1389.98,631.176 1415.89,654.56L1383.46,652.6C1398.39,676.673 1419.67,700.169 1444.71,723.324L1414,721.936C1435.19,749.49 1461.91,777.047 1492.31,804.602L1432.64,787.342C1457.74,816.186 1530.53,868.226 1530.53,868.226L1207.69,876.035Z" style="fill:rgb(59,59,59);"/>
        <path d="M47.592,904.088C47.592,904.088 231.555,713.258 306.311,557.919L364.433,632.129C378.181,622.638 394.877,608.235 414.386,589.141L482.596,671.999L472.231,893.819L47.592,904.088ZM371.841,644.165L416.117,607.408C414.992,638.246 398.855,658.864 413.645,686.882C425.156,708.691 432.531,738.338 430.735,749.42C431.308,749.838 438.881,740.726 438.226,707.598C438.073,699.71 439.986,676.387 444.937,671.314L459.557,694.285L459.557,666.719C469.318,678.789 474.999,695.996 465.821,718.095L455.379,712.664C450.423,746.88 440.426,772.846 423.217,787.011C424.637,757.499 417.292,719.431 371.841,644.165ZM227.323,718.512C249.663,686.507 276.544,645.404 306.683,591.117C307.424,606.408 315.359,634.65 319.935,646.733C329.808,672.794 327.821,690.005 325.896,703.893C322.529,694.444 318.961,680.903 310.025,669.224C287.037,715.187 269.649,734.682 257.814,742.737C266.546,724.639 271.775,706.537 274.939,688.439C269.419,694.15 259.646,701.632 227.323,718.512Z" style="fill:rgb(59,59,59);"/>
        <path d="M498.262,610.908L1163.63,623.549L1197.65,876.277L484.849,893.514L498.262,610.908ZM693.399,711.487L617.727,710.599L613.938,876.04L691.474,875.098L693.399,711.487ZM705.63,711.631L703.71,874.951L776.932,874.061L775.432,712.452L705.63,711.631ZM512.693,306.855L1127.87,357.865L1161.75,609.528L498.926,596.936L512.693,306.855ZM953.334,484.466C976.508,484.825 995.32,504.147 995.317,527.591C995.315,551.035 976.501,569.777 953.327,569.418C930.153,569.06 911.341,549.737 911.344,526.293C911.344,502.851 930.16,484.109 953.334,484.466ZM636.019,424.603L636.567,374.105L693.788,377.681L694.009,428.173L751.346,431.7L750.766,487.682L694.263,485.957L694.503,540.4L634.78,538.97L635.374,484.161L571.808,482.222L572.468,420.693L636.019,424.603ZM1056.11,398.973C1079.56,399.863 1098.59,419.169 1098.59,442.061C1098.59,464.95 1079.56,482.811 1056.11,481.921C1032.66,481.031 1013.62,461.725 1013.62,438.833C1013.62,415.944 1032.66,398.082 1056.11,398.973ZM513.024,299.869L514.056,278.123L827.701,142.651L1124.09,329.758L1126.91,350.772L513.024,299.869Z" style="fill:rgb(59,59,59);"/>
    </g>
    <g transform="matrix(60.7607,0,0,60.7607,-20637.8,-1688.91)">
        <path d="M376.747,38.296C376.851,38.296 376.933,38.344 376.993,38.44C377.053,38.536 377.083,38.668 377.083,38.836C377.083,39.148 377.007,39.396 376.855,39.58C376.063,40.548 375.219,41.032 374.323,41.032C373.547,41.032 372.927,40.732 372.463,40.132C371.999,39.532 371.767,38.672 371.767,37.552C371.767,37.28 371.779,37.008 371.803,36.736C371.275,36.832 370.699,36.904 370.075,36.952C369.659,36.984 369.375,37.004 369.223,37.012C369.063,37.828 368.839,38.828 368.551,40.012C368.383,40.708 368.063,41.056 367.591,41.056C367.079,41.056 366.823,40.824 366.823,40.36C366.823,40.256 366.843,40.112 366.883,39.928C367.155,38.832 367.371,37.904 367.531,37.144L366.955,37.168C366.691,37.168 366.499,37.122 366.379,37.03C366.259,36.938 366.199,36.788 366.199,36.58C366.199,36.316 366.275,36.122 366.427,35.998C366.579,35.874 366.831,35.804 367.183,35.788L367.819,35.764C368.027,34.636 368.131,33.776 368.131,33.184C368.131,32.808 368.075,32.552 367.963,32.416C367.851,32.28 367.703,32.212 367.519,32.212C366.959,32.212 366.327,32.68 365.623,33.616C365.519,33.752 365.403,33.82 365.275,33.82C365.163,33.82 365.067,33.768 364.987,33.664C364.907,33.56 364.867,33.428 364.867,33.268C364.867,33.02 364.967,32.756 365.167,32.476C365.519,31.988 365.963,31.586 366.499,31.27C367.035,30.954 367.579,30.796 368.131,30.796C368.651,30.796 369.053,30.974 369.337,31.33C369.621,31.686 369.763,32.24 369.763,32.992C369.763,33.656 369.667,34.556 369.475,35.692L370.651,35.632C371.155,35.608 371.587,35.568 371.947,35.512C372.091,34.632 372.311,33.808 372.607,33.04C372.903,32.272 373.271,31.648 373.711,31.168C374.151,30.688 374.643,30.448 375.187,30.448C375.587,30.448 375.903,30.606 376.135,30.922C376.367,31.238 376.483,31.652 376.483,32.164C376.483,34.148 375.471,35.524 373.447,36.292C373.423,36.612 373.411,36.944 373.411,37.288C373.411,38.128 373.515,38.724 373.723,39.076C373.931,39.428 374.223,39.604 374.599,39.604C374.927,39.604 375.227,39.518 375.499,39.346C375.771,39.174 376.079,38.88 376.423,38.464C376.519,38.352 376.627,38.296 376.747,38.296ZM375.127,31.492C374.951,31.492 374.765,31.652 374.569,31.972C374.373,32.292 374.187,32.728 374.011,33.28C373.835,33.832 373.695,34.436 373.591,35.092C374.231,34.828 374.703,34.452 375.007,33.964C375.311,33.476 375.463,32.848 375.463,32.08C375.463,31.896 375.431,31.752 375.367,31.648C375.303,31.544 375.223,31.492 375.127,31.492Z" style="fill-rule:nonzero;"/>
        <path d="M377.335,41.032C376.975,41.032 376.681,40.866 376.453,40.534C376.225,40.202 376.111,39.788 376.111,39.292C376.111,38.692 376.151,38.142 376.231,37.642C376.311,37.142 376.443,36.612 376.627,36.052C376.707,35.812 376.819,35.64 376.963,35.536C377.107,35.432 377.335,35.38 377.647,35.38C377.823,35.38 377.945,35.408 378.013,35.464C378.081,35.52 378.115,35.604 378.115,35.716C378.115,35.78 378.071,35.996 377.983,36.364C377.903,36.66 377.839,36.928 377.791,37.168C377.631,38.008 377.551,38.568 377.551,38.848C377.551,39.016 377.571,39.134 377.611,39.202C377.651,39.27 377.715,39.304 377.803,39.304C377.923,39.304 378.073,39.184 378.253,38.944C378.433,38.704 378.625,38.34 378.829,37.852C379.033,37.364 379.231,36.764 379.423,36.052C379.487,35.812 379.585,35.64 379.717,35.536C379.849,35.432 380.047,35.38 380.311,35.38C380.495,35.38 380.623,35.402 380.695,35.446C380.767,35.49 380.803,35.572 380.803,35.692C380.803,35.892 380.703,36.44 380.503,37.336C380.279,38.36 380.167,38.992 380.167,39.232C380.167,39.384 380.199,39.502 380.263,39.586C380.327,39.67 380.411,39.712 380.515,39.712C380.675,39.712 380.865,39.614 381.085,39.418C381.305,39.222 381.599,38.904 381.967,38.464C382.063,38.352 382.171,38.296 382.291,38.296C382.395,38.296 382.477,38.344 382.537,38.44C382.597,38.536 382.627,38.668 382.627,38.836C382.627,39.156 382.551,39.404 382.399,39.58C382.055,40.004 381.685,40.352 381.289,40.624C380.893,40.896 380.443,41.032 379.939,41.032C379.555,41.032 379.273,40.884 379.093,40.588C378.913,40.292 378.823,39.876 378.823,39.34C378.687,39.884 378.483,40.302 378.211,40.594C377.939,40.886 377.647,41.032 377.335,41.032ZM377.887,34.588C377.631,34.588 377.431,34.518 377.287,34.378C377.143,34.238 377.071,34.02 377.071,33.724C377.071,33.404 377.157,33.154 377.329,32.974C377.501,32.794 377.731,32.704 378.019,32.704C378.275,32.704 378.475,32.774 378.619,32.914C378.763,33.054 378.835,33.272 378.835,33.568C378.835,33.888 378.749,34.138 378.577,34.318C378.405,34.498 378.175,34.588 377.887,34.588ZM380.383,34.588C380.127,34.588 379.927,34.518 379.783,34.378C379.639,34.238 379.567,34.02 379.567,33.724C379.567,33.404 379.653,33.154 379.825,32.974C379.997,32.794 380.227,32.704 380.515,32.704C380.771,32.704 380.971,32.774 381.115,32.914C381.259,33.054 381.331,33.272 381.331,33.568C381.331,33.888 381.245,34.138 381.073,34.318C380.901,34.498 380.671,34.588 380.383,34.588Z" style="fill-rule:nonzero;"/>
        <path d="M390.763,38.296C390.867,38.296 390.949,38.344 391.009,38.44C391.069,38.536 391.099,38.668 391.099,38.836C391.099,39.156 391.023,39.404 390.871,39.58C390.527,40.004 390.151,40.352 389.743,40.624C389.335,40.896 388.867,41.032 388.339,41.032C387.363,41.032 386.683,40.624 386.299,39.808C386.091,40.144 385.815,40.432 385.471,40.672C385.127,40.912 384.759,41.032 384.367,41.032C383.607,41.032 383.049,40.722 382.693,40.102C382.337,39.482 382.159,38.644 382.159,37.588C382.159,37.196 382.179,36.76 382.219,36.28L381.727,36.28C381.487,36.28 381.325,36.236 381.241,36.148C381.157,36.06 381.115,35.92 381.115,35.728C381.115,35.28 381.295,35.056 381.655,35.056L382.387,35.056C382.539,34.208 382.751,33.44 383.023,32.752C383.295,32.064 383.623,31.516 384.007,31.108C384.391,30.7 384.807,30.496 385.255,30.496C385.591,30.496 385.855,30.644 386.047,30.94C386.239,31.236 386.335,31.608 386.335,32.056C386.335,33.184 385.899,34.184 385.027,35.056L386.119,35.056C386.271,34.208 386.483,33.44 386.755,32.752C387.027,32.064 387.355,31.516 387.739,31.108C388.123,30.7 388.539,30.496 388.987,30.496C389.323,30.496 389.587,30.644 389.779,30.94C389.971,31.236 390.067,31.608 390.067,32.056C390.067,33.184 389.631,34.184 388.759,35.056L389.851,35.056C389.979,35.056 390.071,35.084 390.127,35.14C390.183,35.196 390.211,35.3 390.211,35.452C390.211,36.004 389.759,36.28 388.855,36.28L387.403,36.28C387.379,36.664 387.367,37.056 387.367,37.456C387.367,38.288 387.465,38.872 387.661,39.208C387.857,39.544 388.167,39.712 388.591,39.712C388.935,39.712 389.239,39.608 389.503,39.4C389.767,39.192 390.079,38.88 390.439,38.464C390.535,38.352 390.643,38.296 390.763,38.296ZM384.931,31.648C384.811,31.648 384.677,31.798 384.529,32.098C384.381,32.398 384.241,32.814 384.109,33.346C383.977,33.878 383.867,34.468 383.779,35.116C384.251,34.708 384.605,34.25 384.841,33.742C385.077,33.234 385.195,32.772 385.195,32.356C385.195,31.884 385.107,31.648 384.931,31.648ZM388.663,31.648C388.543,31.648 388.409,31.798 388.261,32.098C388.113,32.398 387.973,32.814 387.841,33.346C387.709,33.878 387.599,34.468 387.511,35.116C387.983,34.708 388.337,34.25 388.573,33.742C388.809,33.234 388.927,32.772 388.927,32.356C388.927,31.884 388.839,31.648 388.663,31.648ZM384.619,39.712C384.859,39.712 385.099,39.6 385.339,39.376C385.579,39.152 385.783,38.876 385.951,38.548C385.911,38.3 385.891,37.98 385.891,37.588C385.891,37.196 385.911,36.76 385.951,36.28L383.671,36.28C383.647,36.664 383.635,37.056 383.635,37.456C383.635,38.264 383.721,38.842 383.893,39.19C384.065,39.538 384.307,39.712 384.619,39.712Z" style="fill-rule:nonzero;"/>
        <path d="M395.479,38.296C395.583,38.296 395.665,38.344 395.725,38.44C395.785,38.536 395.815,38.668 395.815,38.836C395.815,39.156 395.739,39.404 395.587,39.58C395.291,39.94 394.873,40.272 394.333,40.576C393.793,40.88 393.215,41.032 392.599,41.032C391.759,41.032 391.107,40.804 390.643,40.348C390.179,39.892 389.947,39.268 389.947,38.476C389.947,37.924 390.063,37.41 390.295,36.934C390.527,36.458 390.849,36.08 391.261,35.8C391.673,35.52 392.139,35.38 392.659,35.38C393.123,35.38 393.495,35.518 393.775,35.794C394.055,36.07 394.195,36.444 394.195,36.916C394.195,37.468 393.997,37.942 393.601,38.338C393.205,38.734 392.535,39.048 391.591,39.28C391.791,39.648 392.171,39.832 392.731,39.832C393.091,39.832 393.501,39.706 393.961,39.454C394.421,39.202 394.819,38.872 395.155,38.464C395.251,38.352 395.359,38.296 395.479,38.296ZM392.455,36.556C392.159,36.556 391.909,36.728 391.705,37.072C391.501,37.416 391.399,37.832 391.399,38.32L391.399,38.344C391.871,38.232 392.243,38.064 392.515,37.84C392.787,37.616 392.923,37.356 392.923,37.06C392.923,36.908 392.881,36.786 392.797,36.694C392.713,36.602 392.599,36.556 392.455,36.556Z" style="fill-rule:nonzero;"/>
        <path d="M395.695,41.032C395.391,41.032 395.177,40.872 395.053,40.552C394.929,40.232 394.867,39.72 394.867,39.016C394.867,37.976 395.015,36.988 395.311,36.052C395.383,35.82 395.501,35.65 395.665,35.542C395.829,35.434 396.059,35.38 396.355,35.38C396.515,35.38 396.627,35.4 396.691,35.44C396.755,35.48 396.787,35.556 396.787,35.668C396.787,35.796 396.727,36.084 396.607,36.532C396.527,36.852 396.463,37.132 396.415,37.372C396.367,37.612 396.327,37.908 396.295,38.26C396.559,37.572 396.855,37.012 397.183,36.58C397.511,36.148 397.833,35.84 398.149,35.656C398.465,35.472 398.755,35.38 399.019,35.38C399.539,35.38 399.799,35.64 399.799,36.16C399.799,36.472 399.711,37.036 399.535,37.852C399.383,38.548 399.307,39.008 399.307,39.232C399.307,39.552 399.423,39.712 399.655,39.712C399.815,39.712 400.005,39.614 400.225,39.418C400.445,39.222 400.739,38.904 401.107,38.464C401.203,38.352 401.311,38.296 401.431,38.296C401.535,38.296 401.617,38.344 401.677,38.44C401.737,38.536 401.767,38.668 401.767,38.836C401.767,39.156 401.691,39.404 401.539,39.58C401.195,40.004 400.825,40.352 400.429,40.624C400.033,40.896 399.583,41.032 399.079,41.032C398.671,41.032 398.363,40.914 398.155,40.678C397.947,40.442 397.843,40.1 397.843,39.652C397.843,39.428 397.899,39.028 398.011,38.452C398.115,37.948 398.167,37.6 398.167,37.408C398.167,37.28 398.123,37.216 398.035,37.216C397.931,37.216 397.785,37.35 397.597,37.618C397.409,37.886 397.217,38.24 397.021,38.68C396.825,39.12 396.667,39.584 396.547,40.072C396.459,40.448 396.357,40.702 396.241,40.834C396.125,40.966 395.943,41.032 395.695,41.032Z" style="fill-rule:nonzero;"/>
        <path d="M409.411,31.768C409.411,32.008 409.361,32.188 409.261,32.308C409.161,32.428 408.999,32.488 408.775,32.488C408.759,32.656 408.723,32.948 408.667,33.364C408.587,33.924 408.543,34.236 408.535,34.3C407.823,39.604 406.339,42.256 404.083,42.256C403.419,42.256 402.901,42.068 402.529,41.692C402.157,41.316 401.971,40.844 401.971,40.276C401.971,39.26 402.403,38.362 403.267,37.582C404.131,36.802 405.267,36.156 406.675,35.644C406.763,35.076 406.831,34.568 406.879,34.12L407.095,32.308C406.615,32.26 406.167,32.236 405.751,32.236C404.639,32.236 403.819,32.344 403.291,32.56C402.763,32.776 402.499,33.128 402.499,33.616C402.499,33.856 402.579,34.116 402.739,34.396C402.787,34.476 402.811,34.56 402.811,34.648C402.811,34.816 402.725,34.966 402.553,35.098C402.381,35.23 402.195,35.296 401.995,35.296C401.739,35.296 401.543,35.188 401.407,34.972C401.183,34.604 401.071,34.176 401.071,33.688C401.071,31.768 402.751,30.808 406.111,30.808C407.087,30.808 407.959,30.904 408.727,31.096C409.183,31.208 409.411,31.432 409.411,31.768ZM404.239,40.972C404.631,40.972 405.023,40.676 405.415,40.084C405.807,39.492 406.151,38.456 406.447,36.976C404.495,37.832 403.519,38.88 403.519,40.12C403.519,40.392 403.583,40.602 403.711,40.75C403.839,40.898 404.015,40.972 404.239,40.972Z" style="fill-rule:nonzero;"/>
        <path d="M410.407,41.032C409.911,41.032 409.515,40.852 409.219,40.492C408.923,40.132 408.775,39.66 408.775,39.076C408.775,38.436 408.923,37.83 409.219,37.258C409.515,36.686 409.909,36.226 410.401,35.878C410.893,35.53 411.415,35.356 411.967,35.356C412.143,35.356 412.261,35.39 412.321,35.458C412.381,35.526 412.431,35.648 412.471,35.824C412.639,35.792 412.815,35.776 412.999,35.776C413.391,35.776 413.587,35.916 413.587,36.196C413.587,36.364 413.527,36.764 413.407,37.396C413.223,38.316 413.131,38.956 413.131,39.316C413.131,39.436 413.161,39.532 413.221,39.604C413.281,39.676 413.359,39.712 413.455,39.712C413.607,39.712 413.791,39.614 414.007,39.418C414.223,39.222 414.515,38.904 414.883,38.464C414.979,38.352 415.087,38.296 415.207,38.296C415.311,38.296 415.393,38.344 415.453,38.44C415.513,38.536 415.543,38.668 415.543,38.836C415.543,39.156 415.467,39.404 415.315,39.58C414.987,39.988 414.639,40.332 414.271,40.612C413.903,40.892 413.547,41.032 413.203,41.032C412.939,41.032 412.697,40.942 412.477,40.762C412.257,40.582 412.091,40.336 411.979,40.024C411.563,40.696 411.039,41.032 410.407,41.032ZM410.839,39.82C411.015,39.82 411.183,39.716 411.343,39.508C411.503,39.3 411.619,39.024 411.691,38.68L412.135,36.472C411.799,36.48 411.489,36.606 411.205,36.85C410.921,37.094 410.695,37.416 410.527,37.816C410.359,38.216 410.275,38.64 410.275,39.088C410.275,39.336 410.325,39.52 410.425,39.64C410.525,39.76 410.663,39.82 410.839,39.82Z" style="fill-rule:nonzero;"/>
        <path d="M415.423,41.032C415.119,41.032 414.905,40.872 414.781,40.552C414.657,40.232 414.595,39.72 414.595,39.016C414.595,37.976 414.743,36.988 415.039,36.052C415.111,35.82 415.229,35.65 415.393,35.542C415.557,35.434 415.787,35.38 416.083,35.38C416.243,35.38 416.355,35.4 416.419,35.44C416.483,35.48 416.515,35.556 416.515,35.668C416.515,35.796 416.455,36.084 416.335,36.532C416.255,36.852 416.191,37.13 416.143,37.366C416.095,37.602 416.055,37.896 416.023,38.248C416.239,37.624 416.497,37.096 416.797,36.664C417.097,36.232 417.405,35.91 417.721,35.698C418.037,35.486 418.335,35.38 418.615,35.38C418.895,35.38 419.093,35.444 419.209,35.572C419.325,35.7 419.383,35.896 419.383,36.16C419.383,36.416 419.307,36.88 419.155,37.552C419.091,37.84 419.047,38.056 419.023,38.2C419.287,37.528 419.581,36.98 419.905,36.556C420.229,36.132 420.547,35.83 420.859,35.65C421.171,35.47 421.459,35.38 421.723,35.38C421.979,35.38 422.173,35.446 422.305,35.578C422.437,35.71 422.503,35.904 422.503,36.16C422.503,36.368 422.459,36.76 422.371,37.336C422.291,37.824 422.227,38.286 422.179,38.722C422.131,39.158 422.107,39.644 422.107,40.18C422.107,40.484 422.045,40.702 421.921,40.834C421.797,40.966 421.595,41.032 421.315,41.032C421.051,41.032 420.859,40.964 420.739,40.828C420.619,40.692 420.559,40.488 420.559,40.216C420.559,39.896 420.615,39.368 420.727,38.632C420.823,37.992 420.871,37.584 420.871,37.408C420.871,37.28 420.827,37.216 420.739,37.216C420.635,37.216 420.487,37.35 420.295,37.618C420.103,37.886 419.911,38.24 419.719,38.68C419.527,39.12 419.371,39.584 419.251,40.072C419.163,40.456 419.061,40.712 418.945,40.84C418.829,40.968 418.643,41.032 418.387,41.032C418.123,41.032 417.925,40.906 417.793,40.654C417.661,40.402 417.595,40.096 417.595,39.736C417.595,39.432 417.635,38.992 417.715,38.416C417.779,37.904 417.811,37.568 417.811,37.408C417.811,37.28 417.767,37.216 417.679,37.216C417.559,37.216 417.407,37.36 417.223,37.648C417.039,37.936 416.861,38.304 416.689,38.752C416.517,39.2 416.379,39.64 416.275,40.072C416.187,40.448 416.085,40.702 415.969,40.834C415.853,40.966 415.671,41.032 415.423,41.032Z" style="fill-rule:nonzero;"/>
    </g>
</svg>
