<?xml version="1.0" encoding="UTF-8" standalone="no"?>
<!DOCTYPE svg PUBLIC "-//W3C//DTD SVG 1.1//EN" "http://www.w3.org/Graphics/SVG/1.1/DTD/svg11.dtd">
<svg width="100%" height="100%" viewBox="0 0 5038 959" version="1.1" xmlns="http://www.w3.org/2000/svg" xmlns:xlink="http://www.w3.org/1999/xlink" xml:space="preserve" xmlns:serif="http://www.serif.com/" style="fill-rule:evenodd;clip-rule:evenodd;stroke-linejoin:round;stroke-miterlimit:1.41421;">
    <g transform="matrix(1.09285,0,0,1.09285,-42.2562,-47.1168)">
        <path d="M410.783,243.298L835.882,48.763L1216.55,322.553L1149.3,419.823L1137.3,324.956L828.677,123.213L499.646,267.316L487.079,596.353L410.783,243.298Z" style="fill:rgb(59,59,59);"/>
        <path d="M1274.19,418.621C1267.46,442.305 1255.78,469.452 1241.97,492.125C1250.01,491.34 1258.06,489.313 1266.1,485.591C1260.64,504.799 1256.2,520.195 1245.68,537.38C1252.32,553.144 1263.5,561.381 1273.34,571.527C1264.39,568.256 1246.73,567.235 1236.18,563.159C1245.28,589.894 1266.35,617.579 1293.09,642.55L1257.95,640.59C1269.24,666.472 1284.43,687.945 1300.79,700.67C1309.95,690.692 1317.02,675.429 1318.96,666.253C1311.27,670.578 1300.7,675.851 1293.01,677.14C1311.22,645.423 1326.58,617.84 1346.81,573.976C1339.85,570.302 1330.83,562.484 1319.82,550.714L1354.2,560.352C1332.09,536.054 1308.35,510.501 1296.75,483.368C1303.94,486.309 1312.11,488.266 1322.23,488.271C1304.11,469.261 1288.26,445.726 1274.19,418.621Z" style="fill:rgb(59,59,59);"/>
        <path d="M1207.69,876.035L1167.44,576.067C1175.96,567.832 1177.1,562.439 1181.61,551.795C1170.21,557.171 1168.88,556.884 1163.9,555.84C1177.8,529.607 1188.13,503.883 1194.94,478.664C1207.25,504.473 1223.76,530.28 1246.19,556.09C1239.8,554.813 1230.2,554.055 1222.2,548.763C1231.84,585.143 1252.36,611.504 1272.12,632.702C1266.93,633.499 1257.56,631.973 1245.56,630.729C1257.36,663.221 1273.06,690.527 1297.01,706.824C1292.03,718.366 1283.61,731.054 1271.41,745.002C1286.73,743.532 1297.73,738.967 1305.97,732.438C1292.34,763.618 1273.08,793.599 1250.35,820.732C1281.54,817.339 1301.39,806.811 1312.62,796.887C1293.89,805.443 1278.2,810.092 1265.09,811.427C1293.49,779.974 1311.09,749.462 1316.22,720.034L1287.58,734.572C1299.83,718.203 1311.07,706.526 1331.83,650.384L1307.56,664.862C1328.82,630.882 1343.14,603.836 1352.43,581.81C1368.23,607.035 1389.98,631.176 1415.89,654.56L1383.46,652.6C1398.39,676.673 1419.67,700.169 1444.71,723.324L1414,721.936C1435.19,749.49 1461.91,777.047 1492.31,804.602L1432.64,787.342C1457.74,816.186 1530.53,868.226 1530.53,868.226L1207.69,876.035Z" style="fill:rgb(59,59,59);"/>
        <path d="M47.592,904.088C47.592,904.088 231.555,713.258 306.311,557.919L364.433,632.129C378.181,622.638 394.877,608.235 414.386,589.141L482.596,671.999L472.231,893.819L47.592,904.088ZM371.841,644.165L416.117,607.408C414.992,638.246 398.855,658.864 413.645,686.882C425.156,708.691 432.531,738.338 430.735,749.42C431.308,749.838 438.881,740.726 438.226,707.598C438.073,699.71 439.986,676.387 444.937,671.314L459.557,694.285L459.557,666.719C469.318,678.789 474.999,695.996 465.821,718.095L455.379,712.664C450.423,746.88 440.426,772.846 423.217,787.011C424.637,757.499 417.292,719.431 371.841,644.165ZM227.323,718.512C249.663,686.507 276.544,645.404 306.683,591.117C307.424,606.408 315.359,634.65 319.935,646.733C329.808,672.794 327.821,690.005 325.896,703.893C322.529,694.444 318.961,680.903 310.025,669.224C287.037,715.187 269.649,734.682 257.814,742.737C266.546,724.639 271.775,706.537 274.939,688.439C269.419,694.15 259.646,701.632 227.323,718.512Z" style="fill:rgb(59,59,59);"/>
        <path d="M498.262,610.908L1163.63,623.549L1197.65,876.277L484.849,893.514L498.262,610.908ZM693.399,711.487L617.727,710.599L613.938,876.04L691.474,875.098L693.399,711.487ZM705.63,711.631L703.71,874.951L776.932,874.061L775.432,712.452L705.63,711.631ZM512.693,306.855L1127.87,357.865L1161.75,609.528L498.926,596.936L512.693,306.855ZM953.334,484.466C976.508,484.825 995.32,504.147 995.317,527.591C995.315,551.035 976.501,569.777 953.327,569.418C930.153,569.06 911.341,549.737 911.344,526.293C911.344,502.851 930.16,484.109 953.334,484.466ZM636.019,424.603L636.567,374.105L693.788,377.681L694.009,428.173L751.346,431.7L750.766,487.682L694.263,485.957L694.503,540.4L634.78,538.97L635.374,484.161L571.808,482.222L572.468,420.693L636.019,424.603ZM1056.11,398.973C1079.56,399.863 1098.59,419.169 1098.59,442.061C1098.59,464.95 1079.56,482.811 1056.11,481.921C1032.66,481.031 1013.62,461.725 1013.62,438.833C1013.62,415.944 1032.66,398.082 1056.11,398.973ZM513.024,299.869L514.056,278.123L827.701,142.651L1124.09,329.758L1126.91,350.772L513.024,299.869Z" style="fill:rgb(59,59,59);"/>
    </g>
    <g transform="matrix(1,0,0,1,14.3352,-14.0605)">
        <path d="M3079,635.154C3085.32,635.154 3090.3,638.069 3093.94,643.9C3097.59,649.731 3099.41,657.749 3099.41,667.954C3099.41,687.391 3094.79,702.455 3085.56,713.145C3064.66,738.9 3041.83,760.038 3017.04,776.559C2992.26,793.081 2963.84,801.342 2931.76,801.342C2872.48,801.342 2831.18,776.559 2807.85,726.995C2795.22,747.404 2778.45,764.897 2757.56,779.475C2736.66,794.053 2714.31,801.342 2690.5,801.342C2644.34,801.342 2610.44,782.512 2588.82,744.852C2567.19,707.193 2556.38,656.292 2556.38,592.149C2556.38,568.338 2557.6,541.855 2560.03,512.699L2530.14,512.699C2515.56,512.699 2505.72,510.026 2500.62,504.681C2495.52,499.336 2492.97,490.832 2492.97,479.17C2492.97,451.957 2503.9,438.351 2525.77,438.351L2570.23,438.351C2579.46,386.843 2592.34,340.193 2608.86,298.403C2625.38,256.613 2645.31,223.327 2668.63,198.544C2691.96,173.762 2717.22,161.371 2744.44,161.371C2764.85,161.371 2780.88,170.36 2792.54,188.34C2804.21,206.319 2810.04,228.915 2810.04,256.127C2810.04,324.643 2783.55,385.385 2730.59,438.351L2796.92,438.351C2806.15,386.843 2819.03,340.193 2835.55,298.403C2852.07,256.613 2871.99,223.327 2895.32,198.544C2918.64,173.762 2943.91,161.371 2971.12,161.371C2991.53,161.371 3007.57,170.36 3019.23,188.34C3030.89,206.319 3036.72,228.915 3036.72,256.127C3036.72,324.643 3010.24,385.385 2957.28,438.351L3023.6,438.351C3031.38,438.351 3036.97,440.052 3040.37,443.454C3043.77,446.855 3045.47,453.172 3045.47,462.405C3045.47,495.934 3018.02,512.699 2963.11,512.699L2874.91,512.699C2873.45,536.024 2872.72,559.834 2872.72,584.131C2872.72,634.668 2878.68,670.141 2890.58,690.55C2902.49,710.959 2921.32,721.163 2947.07,721.163C2967.97,721.163 2986.43,714.846 3002.47,702.212C3018.5,689.578 3037.45,670.626 3059.32,645.358C3065.15,638.555 3071.71,635.154 3079,635.154ZM2724.76,231.345C2717.47,231.345 2709.33,240.456 2700.34,258.678C2691.35,276.901 2682.85,302.169 2674.83,334.484C2666.81,366.798 2660.13,402.635 2654.78,441.996C2683.45,417.213 2704.95,389.394 2719.29,358.537C2733.62,327.68 2740.79,299.618 2740.79,274.35C2740.79,245.68 2735.45,231.345 2724.76,231.345ZM2951.44,231.345C2944.16,231.345 2936.01,240.456 2927.03,258.678C2918.04,276.901 2909.53,302.169 2901.51,334.484C2893.5,366.798 2886.82,402.635 2881.47,441.996C2910.14,417.213 2931.64,389.394 2945.98,358.537C2960.31,327.68 2967.48,299.618 2967.48,274.35C2967.48,245.68 2962.13,231.345 2951.44,231.345ZM2705.8,721.163C2720.38,721.163 2734.96,714.36 2749.54,700.754C2764.12,687.148 2776.51,670.384 2786.71,650.46C2784.28,635.396 2783.07,615.959 2783.07,592.149C2783.07,568.338 2784.28,541.855 2786.71,512.699L2648.22,512.699C2646.76,536.024 2646.04,559.834 2646.04,584.131C2646.04,633.21 2651.26,668.318 2661.71,689.456C2672.16,710.594 2686.85,721.163 2705.8,721.163Z"/>
    </g>
    <g transform="matrix(1,0,0,1,14.3352,-14.0605)">
        <path d="M4576.89,801.342C4558.42,801.342 4545.43,791.623 4537.89,772.186C4530.36,752.749 4526.6,721.649 4526.6,678.887C4526.6,615.716 4535.59,555.704 4553.57,498.85C4557.94,484.758 4565.11,474.432 4575.07,467.872C4585.03,461.312 4599,458.032 4616.98,458.032C4626.7,458.032 4633.5,459.246 4637.39,461.676C4641.28,464.106 4643.22,468.722 4643.22,475.525C4643.22,483.3 4639.57,500.794 4632.29,528.006C4627.43,547.443 4623.54,564.329 4620.62,578.664C4617.71,592.999 4615.28,610.857 4613.33,632.238C4626.45,594.335 4642.13,562.264 4660.35,536.024C4678.57,509.783 4697.28,490.225 4716.47,477.347C4735.67,464.47 4753.77,458.032 4770.78,458.032C4787.78,458.032 4799.81,461.919 4806.86,469.694C4813.9,477.469 4817.43,489.374 4817.43,505.41C4817.43,520.96 4812.81,549.144 4803.58,589.962C4799.69,607.455 4797.02,620.576 4795.56,629.322C4811.59,588.504 4829.45,555.218 4849.13,529.463C4868.81,503.709 4888.13,485.365 4907.08,474.432C4926.03,463.498 4943.53,458.032 4959.56,458.032C4975.11,458.032 4986.89,462.04 4994.91,470.058C5002.93,478.076 5006.94,489.86 5006.94,505.41C5006.94,518.044 5004.27,541.855 4998.92,576.842C4994.06,606.484 4990.17,634.546 4987.26,661.029C4984.34,687.513 4982.89,717.033 4982.89,749.59C4982.89,768.056 4979.12,781.297 4971.59,789.315C4964.06,797.333 4951.79,801.342 4934.78,801.342C4918.74,801.342 4907.08,797.212 4899.79,788.951C4892.5,780.69 4888.86,768.299 4888.86,751.777C4888.86,732.34 4892.26,700.268 4899.06,655.563C4904.89,616.688 4907.81,591.906 4907.81,581.215C4907.81,573.44 4905.14,569.553 4899.79,569.553C4893.47,569.553 4884.48,577.692 4872.82,593.971C4861.16,610.25 4849.5,631.752 4837.84,658.478C4826.17,685.204 4816.7,713.388 4809.41,743.03C4804.06,766.355 4797.87,781.905 4790.82,789.68C4783.78,797.455 4772.48,801.342 4756.93,801.342C4740.89,801.342 4728.86,793.689 4720.85,778.382C4712.83,763.075 4708.82,744.488 4708.82,722.621C4708.82,704.156 4711.25,677.43 4716.11,642.442C4720,611.343 4721.94,590.934 4721.94,581.215C4721.94,573.44 4719.27,569.553 4713.92,569.553C4706.63,569.553 4697.4,578.3 4686.22,595.793C4675.05,613.287 4664.24,635.639 4653.79,662.852C4643.34,690.064 4634.96,716.79 4628.64,743.03C4623.3,765.869 4617.1,781.297 4610.05,789.315C4603.01,797.333 4591.95,801.342 4576.89,801.342Z"/>
    </g>
    <g>
        <g transform="matrix(1,0,0,1,1532.05,783.638)">
            <path d="M709.946,-162.544C716.263,-162.544 721.244,-159.628 724.888,-153.797C728.533,-147.966 730.355,-139.948 730.355,-129.744C730.355,-110.792 725.738,-95.728 716.506,-84.552C668.399,-25.754 617.133,3.644 562.708,3.644C515.573,3.644 477.913,-14.578 449.729,-51.023C421.545,-87.468 407.453,-139.705 407.453,-207.736C407.453,-224.257 408.182,-240.779 409.64,-257.301C377.569,-251.469 342.582,-247.096 304.679,-244.18C279.411,-242.237 262.16,-241.022 252.927,-240.536C243.209,-190.971 229.603,-130.23 212.109,-58.312C201.904,-16.036 182.467,5.102 153.797,5.102C122.698,5.102 107.148,-8.99 107.148,-37.174C107.148,-43.491 108.363,-52.238 110.792,-63.414C127.314,-129.987 140.434,-186.355 150.153,-232.518L115.166,-231.06C99.13,-231.06 87.468,-233.854 80.179,-239.443C72.89,-245.031 69.245,-254.142 69.245,-266.776C69.245,-282.812 73.862,-294.596 83.094,-302.128C92.327,-309.66 107.634,-313.912 129.015,-314.884L167.646,-316.341C180.281,-384.858 186.598,-437.095 186.598,-473.054C186.598,-495.893 183.196,-511.443 176.393,-519.704C169.59,-527.964 160.6,-532.095 149.424,-532.095C115.409,-532.095 77.02,-503.668 34.258,-446.814C27.941,-438.553 20.895,-434.423 13.12,-434.423C6.317,-434.423 0.486,-437.581 -4.373,-443.898C-9.233,-450.215 -11.662,-458.233 -11.662,-467.952C-11.662,-483.016 -5.588,-499.051 6.56,-516.059C27.941,-545.701 54.91,-570.119 87.468,-589.313C120.025,-608.508 153.068,-618.105 186.598,-618.105C218.183,-618.105 242.601,-607.293 259.852,-585.669C277.102,-564.045 285.728,-530.394 285.728,-484.717C285.728,-444.384 279.896,-389.717 268.234,-320.715L339.666,-324.359C370.28,-325.817 396.52,-328.247 418.387,-331.648C427.134,-385.101 440.497,-435.152 458.476,-481.801C476.456,-528.45 498.809,-566.353 525.535,-595.509C552.261,-624.665 582.146,-639.243 615.189,-639.243C639.486,-639.243 658.68,-629.646 672.772,-610.451C686.864,-591.257 693.91,-566.11 693.91,-535.01C693.91,-414.499 632.44,-330.919 509.499,-284.27C508.041,-264.833 507.312,-244.666 507.312,-223.771C507.312,-172.749 513.629,-136.547 526.264,-115.166C538.898,-93.785 556.634,-83.094 579.473,-83.094C599.396,-83.094 617.619,-88.318 634.14,-98.766C650.662,-109.213 669.37,-127.071 690.265,-152.339C696.097,-159.143 702.657,-162.544 709.946,-162.544ZM611.545,-575.829C600.854,-575.829 589.556,-566.11 577.651,-546.673C565.746,-527.235 554.448,-500.752 543.757,-467.223C533.067,-433.694 524.563,-397.006 518.246,-357.16C557.12,-373.195 585.79,-396.034 604.256,-425.676C622.721,-455.318 631.954,-493.463 631.954,-540.113C631.954,-551.289 630.01,-560.036 626.123,-566.353C622.235,-572.67 617.376,-575.829 611.545,-575.829Z" style="fill-rule:nonzero;"/>
            <path d="M747.119,3.644C724.281,3.644 705.937,-5.71 692.088,-24.418C678.239,-43.126 671.314,-69.002 671.314,-102.046C671.314,-138.49 673.744,-171.898 678.603,-202.269C683.462,-232.64 691.48,-264.833 702.657,-298.848C707.516,-313.426 714.319,-323.873 723.066,-330.19C731.813,-336.507 745.662,-339.666 764.613,-339.666C775.303,-339.666 782.714,-337.965 786.844,-334.564C790.975,-331.162 793.04,-326.06 793.04,-319.257C793.04,-315.369 790.367,-302.249 785.022,-279.896C780.163,-261.917 776.275,-245.638 773.36,-231.06C763.641,-180.038 758.782,-146.022 758.782,-129.015C758.782,-118.81 759.997,-111.643 762.426,-107.512C764.856,-103.382 768.743,-101.317 774.089,-101.317C781.378,-101.317 790.61,-108.727 801.787,-123.548C812.963,-138.369 824.747,-160.722 837.138,-190.607C849.529,-220.491 861.313,-256.572 872.49,-298.848C876.377,-313.426 882.33,-323.873 890.348,-330.19C898.366,-336.507 910.392,-339.666 926.428,-339.666C937.119,-339.666 944.772,-336.872 949.388,-331.284C954.005,-325.695 956.313,-317.313 956.313,-306.137C956.313,-293.988 955.341,-280.504 953.397,-265.683C951.454,-250.862 949.267,-235.677 946.837,-220.127C941.978,-189.027 938.09,-160.722 935.175,-135.21C932.259,-109.699 930.801,-80.665 930.801,-48.107C930.801,-29.642 927.036,-16.4 919.504,-8.382C911.972,-0.364 899.702,3.644 882.694,3.644C864.715,3.644 852.202,-1.093 845.156,-10.569C838.11,-20.045 834.587,-38.389 834.587,-65.601C834.587,-70.946 835.073,-82.851 836.045,-101.317C827.784,-67.301 815.514,-41.304 799.236,-23.325C782.957,-5.345 765.585,3.644 747.119,3.644ZM779.191,-387.773C763.641,-387.773 751.493,-392.025 742.746,-400.529C733.999,-409.033 729.626,-422.274 729.626,-440.254C729.626,-459.691 734.85,-474.876 745.297,-485.81C755.745,-496.743 769.715,-502.21 787.209,-502.21C802.759,-502.21 814.907,-497.958 823.654,-489.454C832.4,-480.951 836.774,-467.709 836.774,-449.729C836.774,-430.292 831.55,-415.107 821.102,-404.173C810.655,-393.24 796.684,-387.773 779.191,-387.773ZM930.801,-387.773C915.252,-387.773 903.103,-392.025 894.357,-400.529C885.61,-409.033 881.236,-422.274 881.236,-440.254C881.236,-459.691 886.46,-474.876 896.908,-485.81C907.355,-496.743 921.326,-502.21 938.819,-502.21C954.369,-502.21 966.517,-497.958 975.264,-489.454C984.011,-480.951 988.384,-467.709 988.384,-449.729C988.384,-430.292 983.161,-415.107 972.713,-404.173C962.266,-393.24 948.295,-387.773 930.801,-387.773Z" style="fill-rule:nonzero;"/>
        </g>
        <g transform="matrix(1,0,0,1,3019.73,783.638)">
            <path d="M360.075,-162.544C366.392,-162.544 371.373,-159.628 375.018,-153.797C378.662,-147.966 380.484,-139.948 380.484,-129.744C380.484,-110.306 375.868,-95.243 366.635,-84.552C348.656,-62.685 323.266,-42.519 290.465,-24.054C257.665,-5.588 222.557,3.644 185.14,3.644C134.117,3.644 94.514,-10.205 66.33,-37.903C38.146,-65.601 24.054,-103.503 24.054,-151.611C24.054,-185.14 31.1,-216.361 45.192,-245.274C59.284,-274.187 78.842,-297.147 103.868,-314.155C128.893,-331.162 157.199,-339.666 188.784,-339.666C216.968,-339.666 239.564,-331.284 256.572,-314.519C273.579,-297.754 282.083,-275.037 282.083,-246.367C282.083,-212.838 270.056,-184.046 246.003,-159.993C221.949,-135.939 181.252,-116.866 123.912,-102.774C136.061,-80.422 159.143,-69.245 193.158,-69.245C215.025,-69.245 239.929,-76.899 267.87,-92.205C295.811,-107.512 319.986,-127.557 340.395,-152.339C346.226,-159.143 352.786,-162.544 360.075,-162.544ZM176.393,-268.234C158.414,-268.234 143.228,-257.787 130.837,-236.892C118.446,-215.996 112.25,-190.728 112.25,-161.086L112.25,-159.628C140.92,-166.431 163.516,-176.636 180.038,-190.242C196.559,-203.848 204.82,-219.641 204.82,-237.62C204.82,-246.853 202.269,-254.264 197.167,-259.852C192.064,-265.44 185.14,-268.234 176.393,-268.234Z" style="fill-rule:nonzero;"/>
            <path d="M373.195,3.644C354.73,3.644 341.731,-6.074 334.199,-25.511C326.667,-44.949 322.901,-76.048 322.901,-118.81C322.901,-181.981 331.891,-241.994 349.871,-298.848C354.244,-312.94 361.411,-323.266 371.373,-329.826C381.335,-336.386 395.305,-339.666 413.285,-339.666C423.003,-339.666 429.806,-338.451 433.694,-336.022C437.581,-333.592 439.525,-328.976 439.525,-322.172C439.525,-314.398 435.88,-296.904 428.591,-269.692C423.732,-250.255 419.845,-233.247 416.929,-218.669C414.013,-204.091 411.584,-186.112 409.64,-164.731C425.676,-206.521 443.655,-240.536 463.578,-266.776C483.502,-293.017 503.06,-311.725 522.255,-322.901C541.449,-334.078 559.064,-339.666 575.1,-339.666C606.685,-339.666 622.478,-323.873 622.478,-292.288C622.478,-273.336 617.133,-239.078 606.442,-189.513C597.21,-147.237 592.593,-119.296 592.593,-105.69C592.593,-86.253 599.639,-76.534 613.731,-76.534C623.45,-76.534 634.991,-82.487 648.354,-94.392C661.717,-106.297 679.575,-125.613 701.928,-152.339C707.759,-159.143 714.319,-162.544 721.608,-162.544C727.925,-162.544 732.906,-159.628 736.55,-153.797C740.195,-147.966 742.017,-139.948 742.017,-129.744C742.017,-110.306 737.401,-95.243 728.168,-84.552C707.273,-58.798 684.799,-37.66 660.745,-21.138C636.692,-4.616 609.358,3.644 578.744,3.644C553.962,3.644 535.253,-3.523 522.619,-17.858C509.985,-32.193 503.668,-52.967 503.668,-80.179C503.668,-93.785 507.069,-118.081 513.872,-153.068C520.189,-183.682 523.348,-204.82 523.348,-216.482C523.348,-224.257 520.675,-228.145 515.33,-228.145C509.013,-228.145 500.145,-220.005 488.725,-203.727C477.306,-187.448 465.644,-165.946 453.738,-139.219C441.833,-112.493 432.236,-84.309 424.947,-54.667C419.602,-31.829 413.406,-16.4 406.36,-8.382C399.314,-0.364 388.259,3.644 373.195,3.644Z" style="fill-rule:nonzero;"/>
            <path d="M1206.33,-559.064C1206.33,-544.486 1203.29,-533.553 1197.21,-526.264C1191.14,-518.975 1181.3,-515.33 1167.69,-515.33C1166.72,-505.126 1164.53,-487.389 1161.13,-462.121C1156.27,-428.106 1153.6,-409.154 1153.12,-405.267C1109.87,-83.094 1019.73,77.992 882.694,77.992C842.362,77.992 810.898,66.573 788.302,43.734C765.706,20.895 754.408,-7.775 754.408,-42.276C754.408,-103.989 780.649,-158.535 833.129,-205.913C885.61,-253.292 954.612,-292.531 1040.14,-323.63C1045.48,-358.131 1049.61,-388.988 1052.53,-416.2L1065.65,-526.264C1036.49,-529.179 1009.28,-530.637 984.011,-530.637C916.466,-530.637 866.659,-524.077 834.587,-510.957C802.516,-497.837 786.48,-476.456 786.48,-446.814C786.48,-432.236 791.339,-416.443 801.058,-399.436C803.973,-394.576 805.431,-389.474 805.431,-384.129C805.431,-373.924 800.207,-364.813 789.76,-356.795C779.312,-348.777 768.014,-344.768 755.866,-344.768C740.316,-344.768 728.411,-351.328 720.15,-364.449C706.544,-386.801 699.741,-412.799 699.741,-442.44C699.741,-559.064 801.787,-617.376 1005.88,-617.376C1065.16,-617.376 1118.13,-611.545 1164.78,-599.882C1192.48,-593.079 1206.33,-579.473 1206.33,-559.064ZM892.17,0C915.981,0 939.791,-17.979 963.602,-53.938C987.412,-89.897 1008.31,-152.825 1026.29,-242.723C907.72,-190.728 848.436,-127.071 848.436,-51.752C848.436,-35.23 852.324,-22.474 860.098,-13.485C867.873,-4.495 878.564,0 892.17,0Z" style="fill-rule:nonzero;"/>
        </g>
        <g transform="matrix(1,0,0,1,4161.91,783.638)">
            <path d="M118.81,3.644C91.112,3.644 68.638,-7.289 51.387,-29.156C34.137,-51.023 25.511,-79.693 25.511,-115.166C25.511,-154.04 34.501,-190.85 52.481,-225.594C70.46,-260.338 94.392,-288.279 124.277,-309.417C154.162,-330.555 185.869,-341.124 219.398,-341.124C230.088,-341.124 237.256,-339.059 240.9,-334.928C244.545,-330.798 247.582,-323.387 250.012,-312.697C259.244,-314.641 269.449,-315.612 280.625,-315.612C292.288,-315.612 301.277,-312.697 307.595,-306.866C313.912,-301.034 317.07,-292.774 317.07,-282.083C317.07,-270.907 314.641,-251.469 309.781,-223.771C304.436,-194.13 300.306,-165.824 297.39,-138.855C294.474,-111.886 293.017,-81.636 293.017,-48.107C293.017,-29.642 289.251,-16.4 281.719,-8.382C274.187,-0.364 261.917,3.644 244.909,3.644C228.388,3.644 216.118,-0.364 208.1,-8.382C200.082,-16.4 196.073,-29.399 196.073,-47.378L196.802,-59.041C181.738,-17.251 155.741,3.644 118.81,3.644ZM147.237,-69.974C160.843,-69.974 173.235,-79.45 184.411,-98.401C195.587,-117.352 205.549,-151.125 214.296,-199.718L228.145,-273.336C208.222,-272.85 189.756,-265.197 172.749,-250.376C155.741,-235.555 142.135,-215.996 131.93,-191.7C121.726,-167.403 116.624,-141.649 116.624,-114.437C116.624,-99.859 119.418,-88.804 125.006,-81.272C130.594,-73.74 138.004,-69.974 147.237,-69.974Z" style="fill-rule:nonzero;"/>
        </g>
    </g>
</svg>
